<svg xmlns="http://www.w3.org/2000/svg" version="1.1" viewBox="0.4655833917197452 1.1519982 110.48089171974523 87.84" style="max-height: 500px" width="110.48089171974523" height="87.84">
<path style="opacity: 1;" data-index="0" transform="translate(0,0)" fill="#090605" d="M0 0 C37.29 0 74.58 0 113 0 C113 29.7 113 59.4 113 90 C75.71 90 38.42 90 0 90 C0 60.3 0 30.6 0 0 Z"/>
<path style="opacity: 1; visibility: visible; fill: rgb(255, 221, 141);" data-index="1" transform="translate(51.687744140625,3.533447265625)" fill="#E9BC50" d="M0 0 C2.74077111 0.02895781 5.4796001 0.02057682 8.22045898 0.00756836 C21.34236352 0.02289586 34.83553569 0.5045391 45.31225586 9.46655273 C49.61286512 14.72456872 52.31225586 18.57144583 52.31225586 25.46655273 C21.29225586 25.46655273 -9.72774414 25.46655273 -41.68774414 25.46655273 C-39.61552909 16.14158501 -37.78313352 12.67895324 -31.50024414 6.21655273 C-21.43609039 -0.04558737 -11.49356817 -0.13246407 0 0 Z"/>
<path style="opacity: 1; visibility: visible; fill: rgb(255, 208, 97); stroke: rgb(255, 208, 97);" data-index="2" transform="translate(8,69)" fill="#D08748" d="M0 0 C31.68 0 63.36 0 96 0 C96 4.62 96 9.24 96 14 C93.37661991 16.62338009 91.50672534 16.24503046 87.93493652 16.27105713 C86.66003357 16.26498444 86.66003357 16.26498444 85.359375 16.25878906 C84.46496704 16.2622937 83.57055908 16.26579834 82.64904785 16.26940918 C79.6826204 16.27823594 76.71643002 16.27237401 73.75 16.265625 C71.69498651 16.26697138 69.63997333 16.26891168 67.58496094 16.27142334 C63.27405775 16.27437588 58.96323733 16.27007276 54.65234375 16.26074219 C49.11701876 16.24934761 43.5818877 16.25590638 38.04656982 16.26788712 C33.80190562 16.27510219 29.55728765 16.27281941 25.31262207 16.26763153 C23.27119931 16.26629406 21.2297724 16.26794615 19.18835449 16.27259064 C16.33899763 16.27765007 13.48995812 16.26995386 10.640625 16.25878906 C9.7906897 16.26283752 8.94075439 16.26688599 8.06506348 16.27105713 C2.22852785 16.22852785 2.22852785 16.22852785 0 14 C0 9.38 0 4.76 0 0 Z"/>
<path style="opacity: 1;" data-index="3" transform="translate(106,21)" fill="#060502" d="M0 0 C3.15056665 2.57773635 3.97134011 5.10610291 5 9 C5.25277701 12.00578692 5.23475499 14.9856289 5.1875 18 C5.1865332 19.17175781 5.1865332 19.17175781 5.18554688 20.3671875 C5.15285884 24.68200826 4.85085228 28.75254543 4 33 C4.66 33 5.32 33 6 33 C6.02685412 35.31243792 6.04632841 37.6249627 6.0625 39.9375 C6.07410156 41.22527344 6.08570312 42.51304688 6.09765625 43.83984375 C6 47 6 47 5 48 C4.57862702 51.45800654 4.22746249 54.9194894 3.890625 58.38671875 C2.86544996 62.54587187 1.41645535 65.41429786 -2 68 C-5.13259272 68.84839596 -8.15148312 68.76032436 -11.38012695 68.68115234 C-12.31719986 68.6820285 -13.25427277 68.68290466 -14.21974182 68.68380737 C-17.31010965 68.6796347 -20.39829373 68.63299696 -23.48828125 68.5859375 C-25.63346674 68.57474425 -27.77866758 68.56620467 -29.9238739 68.56021118 C-35.56477346 68.53732331 -41.20474321 68.4783993 -46.84527588 68.4119873 C-52.60310284 68.35056454 -58.36108034 68.32319611 -64.11914062 68.29296875 C-75.41316851 68.22865696 -86.70650688 68.12627706 -98 68 C-98 67.01 -98 66.02 -98 65 C-96.92782227 65.00222061 -95.85564453 65.00444122 -94.75097656 65.00672913 C-84.62876262 65.02703284 -74.50655283 65.04200694 -64.38432312 65.05181217 C-59.18084868 65.05702264 -53.97739073 65.06408688 -48.77392578 65.07543945 C-43.74889973 65.08633365 -38.7238895 65.09229067 -33.69885254 65.09487724 C-31.78519441 65.09671973 -29.87153711 65.10031761 -27.95788574 65.10573006 C-25.27008212 65.11302723 -22.58234324 65.11398729 -19.89453125 65.11352539 C-19.10977921 65.11712067 -18.32502716 65.12071594 -17.51649475 65.12442017 C-12.59386814 65.1153129 -7.8742698 64.69758603 -3 64 C-3 58.72 -3 53.44 -3 48 C-29.4 47.67 -55.8 47.34 -83 47 C-83 46.67 -83 46.34 -83 46 C-78.044636 45.1896878 -73.25348972 44.86012074 -68.22875977 44.88647461 C-67.11531944 44.88625557 -67.11531944 44.88625557 -65.97938538 44.8860321 C-63.55002824 44.88672326 -61.12074983 44.89447797 -58.69140625 44.90234375 C-56.99747255 44.90421077 -55.30353831 44.90563333 -53.60960388 44.90663147 C-49.16926562 44.91043432 -44.7289605 44.92024538 -40.28863525 44.93133545 C-35.75037077 44.94159773 -31.21210089 44.94613938 -26.67382812 44.95117188 C-17.78253759 44.9618698 -8.89127156 44.9789192 0 45 C0 41.37 0 37.74 0 34 C-1.485 33.505 -1.485 33.505 -3 33 C-2.67 30.03 -2.34 27.06 -2 24 C-3.73636719 24.01740234 -3.73636719 24.01740234 -5.5078125 24.03515625 C-7.04687338 24.04454077 -8.58593601 24.05364026 -10.125 24.0625 C-11.26582031 24.07506836 -11.26582031 24.07506836 -12.4296875 24.08789062 C-16.75083166 24.10651625 -20.73584038 23.78485257 -25 23 C-26.32 23 -27.64 23 -29 23 C-27.25 19.125 -27.25 19.125 -25 18 C-24.113125 18.474375 -23.22625 18.94875 -22.3125 19.4375 C-16.43600434 22.19995523 -9.34928106 21.22063139 -3 21 C-2.01 18.03 -1.02 15.06 0 12 C-33 12 -66 12 -100 12 C-96 10 -96 10 -94 10 C-94 9.34 -94 8.68 -94 8 C-63.64 8 -33.28 8 -2 8 C-2 6.02 -2 4.04 -2 2 C-1.34 2 -0.68 2 0 2 C0 1.34 0 0.68 0 0 Z"/>
<path style="opacity: 1; visibility: visible; fill: rgb(255, 221, 141);" data-index="4" transform="translate(6,33)" fill="#61D1B0" d="M0 0 C33 0 66 0 100 0 C98 9 98 9 97 10 C88.82584009 10.53601049 81.47071601 10.65912621 74 7 C73.47986328 7.73089844 73.47986328 7.73089844 72.94921875 8.4765625 C68.62639504 11.85512212 61.27515137 10.4268276 56 10 C53.03403821 9.27107719 50.75501957 8.34939734 48 7 C47.64164063 7.48726562 47.28328125 7.97453125 46.9140625 8.4765625 C42.73950033 11.79917321 36.05294617 10.4265474 31 10 C27.78994579 9.25327616 25.05758807 8.26520886 22 7 C21.65839844 7.48597656 21.31679688 7.97195312 20.96484375 8.47265625 C18.04570979 10.74180412 15.10618355 10.47487346 11.5625 10.4375 C9.58443359 10.46650391 9.58443359 10.46650391 7.56640625 10.49609375 C4 10 4 10 1.52734375 8.34765625 C0 6 0 6 0 0 Z"/>
<path style="opacity: 1; visibility: visible; fill: rgb(255, 221, 141);" data-index="5" transform="translate(6,57)" fill="#E5537D" d="M0 0 C33 0 66 0 100 0 C100 2.64 100 5.28 100 8 C67 8 34 8 0 8 C0 5.36 0 2.72 0 0 Z"/>
<path style="opacity: 1; visibility: visible; fill: rgb(255, 221, 141);" data-index="6" transform="translate(61,44)" fill="#DCA660" d="M0 0 C2.63698526 0.09205082 5.23968536 0.14215294 7.875 0.125 C8.58027832 0.1237915 9.28555664 0.12258301 10.01220703 0.12133789 C13.67244597 0.09384592 17.25034354 -0.0494512 20.875 -0.5625 C24 -1 24 -1 26 0 C28.87910588 0.23274209 31.74146495 0.41972757 34.625 0.5625 C35.42679687 0.60568359 36.22859375 0.64886719 37.0546875 0.69335938 C39.0362511 0.79951457 41.01810271 0.90026855 43 1 C43 3.64 43 6.28 43 9 C11.32 9 -20.36 9 -53 9 C-52.34 6.36 -51.68 3.72 -51 1 C-41.9756446 0.05891266 -33.06731652 -0.09242932 -24 0 C-21.43754216 0.02549709 -18.87503495 0.04653405 -16.3125 0.0625 C-15.19488281 0.07410156 -14.07726563 0.08570313 -12.92578125 0.09765625 C-1.59487794 -0.28054479 -1.59487794 -0.28054479 0 0 Z"/>
<path style="opacity: 1; visibility: visible; fill: rgb(255, 221, 141);" data-index="7" transform="translate(82,0)" fill="#F4F4F4" d="M0 0 C10.23 0 20.46 0 31 0 C31 29.7 31 59.4 31 90 C-6.29 90 -43.58 90 -82 90 C-82 82.41 -82 74.82 -82 67 C-81.01 67.66 -80.02 68.32 -79 69 C-78.53200937 71.68802118 -78.20962049 74.22910802 -78 76.9375 C-77.79843025 82.12623864 -77.79843025 82.12623864 -75.70958614 86.70801544 C-72.62022406 89.04273729 -68.63908003 88.43233077 -64.91040039 88.41992188 C-63.98004471 88.42839142 -63.04968903 88.43686096 -62.09114075 88.44558716 C-59.00984093 88.46902308 -55.92903852 88.46997774 -52.84765625 88.46875 C-50.70918069 88.47584759 -48.57070705 88.48354599 -46.43223572 88.49182129 C-41.94736438 88.50528127 -37.46266911 88.50682803 -32.9777832 88.50097656 C-27.22606186 88.49507913 -21.47518423 88.52566728 -15.72362614 88.56609344 C-11.30642635 88.59192339 -6.88943097 88.59485212 -2.47216606 88.59120178 C-0.35143348 88.59289744 1.7693081 88.6025826 3.88996696 88.62034607 C6.85422349 88.64244252 9.81675603 88.6328811 12.78100586 88.61523438 C13.65958252 88.62849762 14.53815918 88.64176086 15.44335938 88.65542603 C20.48992619 88.59806537 20.48992619 88.59806537 24.52662659 85.68127441 C26.36532221 82.33517934 26.78727565 79.53826219 27.1875 75.75 C27.92882147 69.07117853 27.92882147 69.07117853 29 68 C29.23527773 65.65012738 29.41386417 63.29443961 29.5625 60.9375 C29.68818359 59.00197266 29.68818359 59.00197266 29.81640625 57.02734375 C29.87699219 56.02832031 29.93757813 55.02929688 30 54 C29.34 54 28.68 54 28 54 C28.02094727 53.32533691 28.04189453 52.65067383 28.06347656 51.95556641 C28.14754586 48.84553433 28.19894444 45.73574241 28.25 42.625 C28.28351563 41.56410156 28.31703125 40.50320312 28.3515625 39.41015625 C28.47659134 29.22030584 25.50471005 19.98154474 19 12 C13.40786021 6.57429295 7.33655279 3.46593946 0 1 C0 0.67 0 0.34 0 0 Z"/>
<path style="opacity: 1; visibility: visible; fill: rgb(255, 221, 141);" data-index="8" transform="translate(8,69)" fill="#FAD16F" d="M0 0 C31.68 0 63.36 0 96 0 C96 2.64 96 5.28 96 8 C94.02 8 92.04 8 90 8 C90 6.68 90 5.36 90 4 C88.68 4 87.36 4 86 4 C86 5.32 86 6.64 86 8 C84.02 8 82.04 8 80 8 C80 6.68 80 5.36 80 4 C78.68 4 77.36 4 76 4 C76 5.32 76 6.64 76 8 C74.02 8 72.04 8 70 8 C70 6.68 70 5.36 70 4 C68.68 4 67.36 4 66 4 C66 5.32 66 6.64 66 8 C64.02 8 62.04 8 60 8 C60 6.68 60 5.36 60 4 C58.68 4 57.36 4 56 4 C56 5.32 56 6.64 56 8 C54.02 8 52.04 8 50 8 C50 6.68 50 5.36 50 4 C48.68 4 47.36 4 46 4 C46 5.32 46 6.64 46 8 C44.02 8 42.04 8 40 8 C40 6.68 40 5.36 40 4 C38.68 4 37.36 4 36 4 C36 5.32 36 6.64 36 8 C34.02 8 32.04 8 30 8 C30 6.68 30 5.36 30 4 C28.68 4 27.36 4 26 4 C26 5.32 26 6.64 26 8 C24.02 8 22.04 8 20 8 C20 6.68 20 5.36 20 4 C18.68 4 17.36 4 16 4 C16 5.32 16 6.64 16 8 C14.02 8 12.04 8 10 8 C10 6.68 10 5.36 10 4 C8.68 4 7.36 4 6 4 C6 5.32 6 6.64 6 8 C4.02 8 2.04 8 0 8 C0 5.36 0 2.72 0 0 Z"/>
<path style="opacity: 1; visibility: visible; fill: rgb(255, 221, 141);" data-index="9" transform="translate(0,0)" fill="#EEEFEF" d="M0 0 C11.88 0 23.76 0 36 0 C32.66062916 1.66968542 30.30613279 2.45749041 26.75 3.25 C17.26053978 5.78641157 9.96858551 12.43966691 4.91699219 20.7902832 C1.37305982 27.60475439 1.53293024 34.01932598 1.75 41.5625 C1.76804688 42.76197266 1.78609375 43.96144531 1.8046875 45.19726562 C1.85146192 48.13236052 1.91699417 51.06574403 2 54 C1.01 54.495 1.01 54.495 0 55 C0 36.85 0 18.7 0 0 Z"/>
<path style="opacity: 1;" data-index="10" transform="translate(46.39453125,-0.3359375)" fill="#110D0C" d="M0 0 C0.9873967 -0.0066568 1.9747934 -0.0133136 2.99211121 -0.02017212 C5.07390491 -0.03026111 7.1557307 -0.03499031 9.23754883 -0.03466797 C12.39784895 -0.0390347 15.55674391 -0.07537735 18.71679688 -0.11328125 C20.74869319 -0.11915173 22.78059607 -0.12311957 24.8125 -0.125 C26.21143242 -0.14655655 26.21143242 -0.14655655 27.6386261 -0.16854858 C37.84021287 -0.09861473 45.64464659 3.61377755 53.3984375 10.09765625 C56.67483549 13.42044572 58.73719154 17.0880651 60.60546875 21.3359375 C59.61546875 22.3259375 58.62546875 23.3159375 57.60546875 24.3359375 C55.47563477 21.74971052 53.63438041 19.39255616 52.10546875 16.3984375 C46.43944063 9.45755305 37.22136929 6.70981131 28.60546875 5.3359375 C24.80851797 5.08748235 21.03028103 5.1014974 17.2265625 5.140625 C16.17388687 5.1434549 15.12121124 5.14628479 14.03663635 5.14920044 C10.70529359 5.16031188 7.37422898 5.18539952 4.04296875 5.2109375 C1.77148828 5.22097898 -0.49999644 5.23010278 -2.77148438 5.23828125 C-8.31259341 5.26022153 -13.85354245 5.293608 -19.39453125 5.3359375 C-17.23117575 2.09090425 -16.19346681 1.61098096 -12.52456665 0.69793701 C-8.36804341 -0.0084641 -4.20670274 0.0099741 0 0 Z"/>
<path style="opacity: 1;" data-index="11" transform="translate(5,57)" fill="#1B0000" d="M0 0 C0.33 0 0.66 0 1 0 C1 2.64 1 5.28 1 8 C34 8 67 8 101 8 C101 8.33 101 8.66 101 9 C63.38 9.495 63.38 9.495 25 10 C49.09 10.33 73.18 10.66 98 11 C98 11.33 98 11.66 98 12 C85.96069669 12.06950025 73.92144108 12.12281151 61.88197803 12.15543652 C56.29160795 12.17109462 50.70137509 12.19233576 45.11108398 12.22631836 C39.71647988 12.25890631 34.32200779 12.27685193 28.92731285 12.28463173 C26.86881113 12.29017622 24.81031666 12.3010032 22.75187111 12.31719017 C19.86933381 12.33895673 16.98734255 12.34196722 14.10473633 12.34057617 C12.82727287 12.35675491 12.82727287 12.35675491 11.52400208 12.3732605 C6.88784068 12.34903989 3.73066477 12.08133112 0 9 C-0.48828125 6.73828125 -0.48828125 6.73828125 -0.3125 4.3125 C-0.26738281 3.50425781 -0.22226563 2.69601563 -0.17578125 1.86328125 C-0.11777344 1.24839844 -0.05976562 0.63351563 0 0 Z"/>
<path style="opacity: 1; visibility: visible; fill: rgb(255, 221, 141);" data-index="12" transform="translate(6,33)" fill="#74CAB1" d="M0 0 C33 0 66 0 100 0 C99.67 1.98 99.34 3.96 99 6 C98.67 6 98.34 6 98 6 C98 4.35 98 2.7 98 1 C91.96756216 1.11841748 85.93528336 1.24267766 79.90307617 1.37231445 C77.85167702 1.41558198 75.80024375 1.45726275 73.7487793 1.49731445 C70.79725878 1.55521544 67.84590868 1.6188526 64.89453125 1.68359375 C63.97976517 1.70030624 63.06499908 1.71701874 62.12251282 1.73423767 C57.97075895 1.83046804 54.04861152 1.96670315 50 3 C50 3.66 50 4.32 50 5 C50.66 5.33 51.32 5.66 52 6 C51.67 6.66 51.34 7.32 51 8 C50.01 7.67 49.02 7.34 48 7 C47.64808594 7.48855469 47.29617187 7.97710937 46.93359375 8.48046875 C44.04937223 10.74705899 41.67554563 10.36178604 38.0625 10.3125 C36.22365234 10.30669922 36.22365234 10.30669922 34.34765625 10.30078125 C31 10 31 10 27 8 C32.61 8.33 38.22 8.66 44 9 C44 6.69 44 4.38 44 2 C29.81 2 15.62 2 1 2 C0.67 3.32 0.34 4.64 0 6 C0 4.02 0 2.04 0 0 Z"/>
<path style="opacity: 1;" data-index="13" transform="translate(9,53)" fill="#1D0000" d="M0 0 C31.35 0 62.7 0 95 0 C95.99 1.98 95.99 1.98 97 4 C64 4 31 4 -3 4 C-3 3.67 -3 3.34 -3 3 C43.035 2.505 43.035 2.505 90 2 C60.3 1.67 30.6 1.34 0 1 C0 0.67 0 0.34 0 0 Z"/>
<path style="opacity: 1; visibility: visible; fill: rgb(255, 221, 141);" data-index="14" transform="translate(12,20)" fill="#DDBC6A" d="M0 0 C0.33 0 0.66 0 1 0 C1 2.31 1 4.62 1 7 C30.7 7 60.4 7 91 7 C91.33 6.01 91.66 5.02 92 4 C92 5.65 92 7.3 92 9 C60.98 9 29.96 9 -2 9 C-1.34 6.03 -0.68 3.06 0 0 Z"/>
<path style="opacity: 1;" data-index="15" transform="translate(7,78)" fill="#240D00" d="M0 0 C0.33 0 0.66 0 1 0 C1.66 1.98 2.32 3.96 3 6 C14.96076485 6.02313322 26.92152442 6.04092011 38.88230705 6.05181217 C44.43570621 6.05703885 49.9890901 6.06413261 55.54248047 6.07543945 C60.89815547 6.08627595 66.25381577 6.09227846 71.60950089 6.09487724 C73.65650794 6.09673011 75.70351416 6.10034809 77.75051498 6.10573006 C80.6095735 6.11295057 83.4685706 6.11399051 86.32763672 6.11352539 C87.18071411 6.11712067 88.0337915 6.12071594 88.91271973 6.12442017 C93.08955104 6.23063695 93.08955104 6.23063695 97 5 C96.67 5.99 96.34 6.98 96 8 C90.3992725 8.79659865 84.98914969 9.14442325 79.33666992 9.12939453 C78.51126709 9.13114685 77.68586426 9.13289917 76.83544922 9.13470459 C74.13376707 9.13907134 71.43215145 9.13620485 68.73046875 9.1328125 C66.8433684 9.1334867 64.95626814 9.1344577 63.06916809 9.13571167 C59.1278907 9.13718134 55.18663606 9.1350564 51.24536133 9.13037109 C46.19014535 9.1246546 41.13498225 9.12796953 36.07976818 9.13394356 C32.18937275 9.13755219 28.29898993 9.13640952 24.40859413 9.13381577 C22.54383653 9.13314835 20.67907779 9.13396846 18.81432152 9.13629532 C16.21496912 9.1388289 13.61570335 9.13497211 11.01635742 9.12939453 C9.85916954 9.13243088 9.85916954 9.13243088 8.67860413 9.13552856 C5.51589 9.12292793 3.02350553 9.00783518 0 8 C0 5.36 0 2.72 0 0 Z"/>
<path style="opacity: 1; visibility: visible; fill: rgb(255, 221, 141);" data-index="16" transform="translate(0,67)" fill="#7D7D7D" d="M0 0 C1.485 0.99 1.485 0.99 3 2 C3.46799063 4.68802118 3.79037951 7.22910802 4 9.9375 C4.20059354 15.12822703 4.20059354 15.12822703 6.2958498 19.70774555 C9.33774226 22.01440787 13.20304534 21.43851328 16.87768555 21.43237305 C17.78520569 21.4425647 18.69272583 21.45275635 19.62774658 21.46325684 C22.63079936 21.49347833 25.63353365 21.50266678 28.63671875 21.51171875 C30.7175249 21.52855864 32.79832084 21.54670794 34.87910461 21.56611633 C40.35845752 21.6136973 45.83776902 21.64345431 51.31726074 21.66955566 C56.90755392 21.69932035 62.49770429 21.74586469 68.08789062 21.79101562 C79.05851918 21.87714087 90.02917705 21.94444513 101 22 C101 22.33 101 22.66 101 23 C67.67 23 34.34 23 0 23 C0 15.41 0 7.82 0 0 Z"/>
<path style="opacity: 1; visibility: visible; fill: rgb(255, 221, 141);" data-index="17" transform="translate(112,28)" fill="#EDEDED" d="M0 0 C0.33 0 0.66 0 1 0 C1 20.46 1 40.92 1 62 C-2.96 62 -6.92 62 -11 62 C-10.21625 61.401875 -9.4325 60.80375 -8.625 60.1875 C-4.1260479 56.43837325 -3.62647589 53.51418078 -2.9375 47.875 C-2.0991832 41.0991832 -2.0991832 41.0991832 -1 40 C-0.76472227 37.65012738 -0.58613583 35.29443961 -0.4375 32.9375 C-0.35371094 31.64714844 -0.26992187 30.35679688 -0.18359375 29.02734375 C-0.12300781 28.02832031 -0.06242187 27.02929688 0 26 C-0.66 26 -1.32 26 -2 26 C-1.86186975 21.85387186 -1.71321141 17.70818838 -1.5625 13.5625 C-1.52318359 12.37849609 -1.48386719 11.19449219 -1.44335938 9.97460938 C-1.40146484 8.84990234 -1.35957031 7.72519531 -1.31640625 6.56640625 C-1.27974854 5.52427979 -1.24309082 4.48215332 -1.20532227 3.40844727 C-1 1 -1 1 0 0 Z"/>
<path style="opacity: 1; visibility: visible; fill: rgb(255, 221, 141);" data-index="18" transform="translate(74,35)" fill="#5DD7B4" d="M0 0 C9.9 0 19.8 0 30 0 C29.67 1.98 29.34 3.96 29 6 C26.22890693 6.05392397 23.45886182 6.09363455 20.6875 6.125 C19.90181641 6.14175781 19.11613281 6.15851562 18.30664062 6.17578125 C17.54931641 6.18222656 16.79199219 6.18867187 16.01171875 6.1953125 C14.96697388 6.21102295 14.96697388 6.21102295 13.90112305 6.22705078 C12 6 12 6 9 4 C5.87478167 3.83300768 5.87478167 3.83300768 3 4 C3 4.66 3 5.32 3 6 C1.68 5.67 0.36 5.34 -1 5 C-0.67 3.35 -0.34 1.7 0 0 Z"/>
<path style="opacity: 1; visibility: visible; fill: rgb(255, 221, 141);" data-index="19" transform="translate(9,71)" fill="#FED163" d="M0 0 C10.89 0 21.78 0 33 0 C33.495 0.99 33.495 0.99 34 2 C33.67 2.99 33.34 3.98 33 5 C32.01 5 31.02 5 30 5 C29.67 4.34 29.34 3.68 29 3 C26.97536745 2.34786708 26.97536745 2.34786708 25 2 C25 3.32 25 4.64 25 6 C23.02 6 21.04 6 19 6 C19 4.68 19 3.36 19 2 C17.68 2 16.36 2 15 2 C15 3.32 15 4.64 15 6 C13.02 6 11.04 6 9 6 C9 4.68 9 3.36 9 2 C6.03 2.66 3.06 3.32 0 4 C0 2.68 0 1.36 0 0 Z"/>
<path style="opacity: 1; visibility: visible;" data-index="20" transform="translate(28,39)" fill="#0E1708" d="M0 0 C1.794375 0.7425 1.794375 0.7425 3.625 1.5 C9.88955311 3.59150422 16.4697085 3.82950154 23 3 C25.37491397 1.60929605 25.37491397 1.60929605 27 0 C27.845625 0.474375 28.69125 0.94875 29.5625 1.4375 C35.56143413 4.07603534 42.5396499 3.75888011 49 4 C49 4.66 49 5.32 49 6 C46.45826023 6.02716824 43.91681585 6.04691969 41.375 6.0625 C40.30572266 6.07506836 40.30572266 6.07506836 39.21484375 6.08789062 C35.93770345 6.10292338 32.96940492 5.9947061 29.7265625 5.43359375 C26.93267075 4.98929291 25.67133568 5.30868077 23 6 C20.2392275 6.0957819 17.50983254 6.13939913 14.75 6.125 C13.66138672 6.13080078 13.66138672 6.13080078 12.55078125 6.13671875 C7.61925173 6.12792814 2.88230194 5.69589371 -2 5 C-1.01 4.34 -0.02 3.68 1 3 C0.67 2.01 0.34 1.02 0 0 Z"/>
<path style="opacity: 1; visibility: visible; fill: rgb(255, 221, 141);" data-index="21" transform="translate(0,67)" fill="#F1F1F1" d="M0 0 C1.485 0.99 1.485 0.99 3 2 C3.52644568 5.34033494 3.80692571 8.59924041 3.99609375 11.97070312 C4.36101983 16.16735301 4.71527416 17.66637747 7.5703125 21.01171875 C8.77300781 21.99591797 8.77300781 21.99591797 10 23 C6.7 23 3.4 23 0 23 C0 15.41 0 7.82 0 0 Z"/>
<path style="opacity: 1; visibility: visible; fill: rgb(255, 221, 141);" data-index="22" transform="translate(112,28)" fill="#DBDDDC" d="M0 0 C0.33 0 0.66 0 1 0 C1 12.87 1 25.74 1 39 C0.67 39 0.34 39 0 39 C0 34.71 0 30.42 0 26 C-0.66 26 -1.32 26 -2 26 C-1.86186975 21.85387186 -1.71321141 17.70818838 -1.5625 13.5625 C-1.52318359 12.37849609 -1.48386719 11.19449219 -1.44335938 9.97460938 C-1.40146484 8.84990234 -1.35957031 7.72519531 -1.31640625 6.56640625 C-1.27974854 5.52427979 -1.24309082 4.48215332 -1.20532227 3.40844727 C-1 1 -1 1 0 0 Z"/>
<path style="opacity: 1; visibility: visible; fill: rgb(255, 221, 141);" data-index="23" transform="translate(8,69)" fill="#F6D06E" d="M0 0 C23.265 0.495 23.265 0.495 47 1 C47 1.33 47 1.66 47 2 C31.82 2 16.64 2 1 2 C1.33 2.99 1.66 3.98 2 5 C3.32 5 4.64 5 6 5 C6 5.99 6 6.98 6 8 C4.02 8 2.04 8 0 8 C0 5.36 0 2.72 0 0 Z"/>
<path style="opacity: 1; visibility: visible; fill: rgb(255, 221, 141);" data-index="24" transform="translate(50,35)" fill="#66C2A8" d="M0 0 C1.32 0 2.64 0 4 0 C4 0.99 4 1.98 4 3 C5.32 3.33 6.64 3.66 8 4 C7.67 4.66 7.34 5.32 7 6 C6.01 5.67 5.02 5.34 4 5 C3.64808594 5.48855469 3.29617187 5.97710937 2.93359375 6.48046875 C0.04937223 8.74705899 -2.32445437 8.36178604 -5.9375 8.3125 C-7.77634766 8.30669922 -7.77634766 8.30669922 -9.65234375 8.30078125 C-13 8 -13 8 -17 6 C-11.39 6.33 -5.78 6.66 0 7 C0 4.69 0 2.38 0 0 Z"/>
<path style="opacity: 1; visibility: visible; fill: rgb(255, 221, 141);" data-index="25" transform="translate(82,0)" fill="#EAEAEB" d="M0 0 C4.95 0 9.9 0 15 0 C14.01 0.495 14.01 0.495 13 1 C12.34786708 3.02463255 12.34786708 3.02463255 12 5 C8 3.66666667 4 2.33333333 0 1 C0 0.67 0 0.34 0 0 Z"/>
<path style="opacity: 1; visibility: visible; fill: rgb(255, 221, 141);" data-index="26" transform="translate(110,48)" fill="#C1C1C2" d="M0 0 C0.99 0 1.98 0 3 0 C3 6.27 3 12.54 3 19 C2.67 19 2.34 19 2 19 C2 14.71 2 10.42 2 6 C1.34 6 0.68 6 0 6 C0 4.02 0 2.04 0 0 Z"/>
<path style="opacity: 1; visibility: visible;" data-index="27" transform="translate(28,39)" fill="#252616" d="M0 0 C1.4835001 0.42257276 2.96176424 0.86356322 4.4375 1.3125 C5.67306641 1.67794922 5.67306641 1.67794922 6.93359375 2.05078125 C7.95646484 2.52064453 7.95646484 2.52064453 9 3 C9.33 3.99 9.66 4.98 10 6 C6.04 5.67 2.08 5.34 -2 5 C-1.01 4.34 -0.02 3.68 1 3 C0.67 2.01 0.34 1.02 0 0 Z"/>
<path style="opacity: 1; visibility: visible; fill: rgb(255, 221, 141);" data-index="28" transform="translate(25,0)" fill="#DDDBDE" d="M0 0 C2.6015625 -0.29296875 2.6015625 -0.29296875 5.625 -0.1875 C7.12933594 -0.14689453 7.12933594 -0.14689453 8.6640625 -0.10546875 C9.43492188 -0.07066406 10.20578125 -0.03585937 11 0 C8.03821227 1.67110042 5.62928808 2.32682752 2.25 2.625 C1.45078125 2.69976562 0.6515625 2.77453125 -0.171875 2.8515625 C-0.77515625 2.90054687 -1.3784375 2.94953125 -2 3 C-1.34 2.01 -0.68 1.02 0 0 Z"/>
<path style="opacity: 1; visibility: visible; fill: rgb(255, 221, 141);" data-index="29" transform="translate(98,7)" fill="#DDE3DD" d="M0 0 C1.32 0 2.64 0 4 0 C4 0.99 4 1.98 4 3 C4.66 3 5.32 3 6 3 C5.34 4.32 4.68 5.64 4 7 C2.35 5.02 0.7 3.04 -1 1 C-0.67 0.67 -0.34 0.34 0 0 Z"/>
<path style="opacity: 1; visibility: visible; fill: rgb(255, 221, 141);" data-index="30" transform="translate(90,9)" fill="#DDB75D" d="M0 0 C1.65 0.99 3.3 1.98 5 3 C4.67 3.99 4.34 4.98 4 6 C2.68 5.34 1.36 4.68 0 4 C0 2.68 0 1.36 0 0 Z"/>
<path style="opacity: 1; visibility: visible; fill: rgb(255, 221, 141);" data-index="31" transform="translate(60,71)" fill="#FED45C" d="M0 0 C1.32 0 2.64 0 4 0 C3.67 1.32 3.34 2.64 3 4 C1.68 3.67 0.36 3.34 -1 3 C-0.67 2.01 -0.34 1.02 0 0 Z"/>
<path style="opacity: 1; stroke-width: 2px; stroke: rgb(255, 221, 141); visibility: visible; fill: rgb(255, 221, 141);" data-index="32" transform="translate(0,67)" fill="#E6E8E5" d="M0 0 C1.485 0.99 1.485 0.99 3 2 C2.625 4.4375 2.625 4.4375 2 7 C1.01 7.495 1.01 7.495 0 8 C0 5.36 0 2.72 0 0 Z"/>
<path style="opacity: 1; stroke-width: 2px; stroke: rgb(255, 221, 141); visibility: visible; fill: rgb(255, 221, 141);" data-index="33" transform="translate(9,47)" fill="#D59D53" d="M0 0 C0.33 0.66 0.66 1.32 1 2 C1.66 2 2.32 2 3 2 C3 1.34 3 0.68 3 0 C3.99 0 4.98 0 6 0 C6 1.32 6 2.64 6 4 C3.03 3.505 3.03 3.505 0 3 C0 2.01 0 1.02 0 0 Z"/>
<path data-index="34" transform="translate(98,11)" fill="#1A1511" d="M0 0 C1.98 0.495 1.98 0.495 4 1 C3.34 2.32 2.68 3.64 2 5 C1.01 4.67 0.02 4.34 -1 4 C-0.67 2.68 -0.34 1.36 0 0 Z"/>
</svg>