<svg version="1.1" xmlns="http://www.w3.org/2000/svg" width="128" height="128">
<path d="M0 0 C42.24 0 84.48 0 128 0 C128 42.24 128 84.48 128 128 C85.76 128 43.52 128 0 128 C0 85.76 0 43.52 0 0 Z " fill="#F6F6F6" transform="translate(0,0)" data-index="0" style="opacity: 1; visibility: visible; fill: rgb(255, 221, 141);"></path>
<path d="M0 0 C0 0.66 0 1.32 0 2 C28.05 1.67 56.1 1.34 85 1 C87.05279359 5.10558718 87.2216942 6.80206685 87.125 11.25 C87.10695313 12.32765625 87.08890625 13.4053125 87.0703125 14.515625 C87.04710938 15.33546875 87.02390625 16.1553125 87 17 C87.90492187 17.07347656 87.90492187 17.07347656 88.828125 17.1484375 C89.62734375 17.22320312 90.4265625 17.29796875 91.25 17.375 C92.03890625 17.44460937 92.8278125 17.51421875 93.640625 17.5859375 C96.97950492 18.17189987 99.20415537 18.9315049 101.265625 21.69921875 C103.54050028 26.29410573 104.83912637 29.77876926 104 35 C101.32818747 41.42712508 97.22400831 45.10141878 91 48 C87.70017812 49.22895422 84.40019424 50.40903876 81.05078125 51.49609375 C77.19535877 53.14005976 77.19535877 53.14005976 73 59 C85.375 60.485 85.375 60.485 98 62 C92.66666667 72.66666667 92.66666667 72.66666667 88 75 C85.00584541 75.10918246 82.03459732 75.15733985 79.03979492 75.16113281 C77.64688988 75.16858017 77.64688988 75.16858017 76.22584534 75.17617798 C73.14404569 75.190821 70.06229752 75.19760541 66.98046875 75.203125 C64.84296161 75.208875 62.70545449 75.21463275 60.56794739 75.22039795 C56.08134724 75.23091424 51.59476504 75.23675269 47.1081543 75.24023438 C41.3578557 75.2457183 35.607794 75.26974162 29.85756969 75.29820633 C25.44036668 75.31682688 21.02322077 75.32203802 16.60598183 75.32357025 C14.48608417 75.32659897 12.36618757 75.33463485 10.24632835 75.34775543 C7.28016509 75.3648024 4.314581 75.36293879 1.34838867 75.35644531 C0.47183624 75.3656601 -0.40471619 75.37487488 -1.30783081 75.3843689 C-6.07239345 75.35168045 -9.08174098 75.00452996 -13 72 C-13.598125 71.5875 -14.19625 71.175 -14.8125 70.75 C-16.67545119 68.00459825 -16.07074967 65.23214281 -16 62 C0.70842825 59.88838269 0.70842825 59.88838269 9 59 C8.61328125 58.37996094 8.2265625 57.75992188 7.828125 57.12109375 C3.67181702 50.05331261 1.38164732 43.20864288 -0.46728516 35.24560547 C-1.06427709 32.72904644 -1.70838391 30.22678903 -2.35546875 27.72265625 C-2.82129406 25.87785174 -3.28614411 24.03280068 -3.75 22.1875 C-3.97308838 21.32850098 -4.19617676 20.46950195 -4.42602539 19.58447266 C-5.81548061 13.89661232 -7.07342715 7.84116228 -6 2 C-3 0 -3 0 0 0 Z " fill="#E27698" transform="translate(22,46)" data-index="1" style="opacity: 1; visibility: visible; fill: rgb(255, 221, 141);"></path>
<path d="M0 0 C1.15665161 0.0002417 2.31330322 0.0004834 3.50500488 0.00073242 C5.31273376 0.01608032 5.31273376 0.01608032 7.15698242 0.03173828 C8.2724646 0.03375244 9.38794678 0.0357666 10.53723145 0.0378418 C14.69567998 0.0482891 18.85406979 0.07621167 23.01245117 0.10205078 C36.96526367 0.16392578 36.96526367 0.16392578 51.19995117 0.22705078 C51.19995117 24.31705078 51.19995117 48.40705078 51.19995117 73.22705078 C49.71495117 73.72205078 49.71495117 73.72205078 48.19995117 74.22705078 C45.19995117 68.47705078 45.19995117 68.47705078 45.19995117 66.22705078 C40.90995117 65.23705078 36.61995117 64.24705078 32.19995117 63.22705078 C32.00463867 60.19970703 31.80932617 57.17236328 31.61401367 54.14501953 C31.38799384 51.04078893 31.38799384 51.04078893 29.19995117 48.22705078 C26.47815073 47.94073095 23.98474217 47.84874044 21.26196289 47.88647461 C20.03257492 47.88581749 20.03257492 47.88581749 18.77835083 47.88514709 C16.0618734 47.88724172 13.34600865 47.91060413 10.62963867 47.93408203 C8.7491998 47.9396756 6.86875657 47.94394682 4.98831177 47.94694519 C0.03322327 47.95841283 -4.92160242 47.98789643 -9.87658691 48.02105713 C-14.93046513 48.05171674 -19.98438572 48.06544173 -25.03833008 48.08056641 C-34.95901861 48.11276435 -44.87951189 48.1639838 -54.80004883 48.22705078 C-54.80004883 47.56705078 -54.80004883 46.90705078 -54.80004883 46.22705078 C-48.20004883 46.22705078 -41.60004883 46.22705078 -34.80004883 46.22705078 C-34.80004883 40.28705078 -34.80004883 34.34705078 -34.80004883 28.22705078 C-32.82004883 28.22705078 -30.84004883 28.22705078 -28.80004883 28.22705078 C-25.60004883 39.82705078 -25.60004883 39.82705078 -27.80004883 44.22705078 C-26.15004883 44.88705078 -24.50004883 45.54705078 -22.80004883 46.22705078 C-22.80004883 36.32705078 -22.80004883 26.42705078 -22.80004883 16.22705078 C-20.82004883 16.22705078 -18.84004883 16.22705078 -16.80004883 16.22705078 C-15.07971061 22.17003734 -14.51597911 27.43175416 -14.61254883 33.60205078 C-14.61319336 34.40771484 -14.61383789 35.21337891 -14.61450195 36.04345703 C-14.65898537 41.94492387 -14.65898537 41.94492387 -15.80004883 44.22705078 C-14.15004883 44.88705078 -12.50004883 45.54705078 -10.80004883 46.22705078 C-10.80004883 31.70705078 -10.80004883 17.18705078 -10.80004883 2.22705078 C-6.36792796 0.45420243 -4.52094154 -0.02004852 0 0 Z " fill="#F6F6F5" transform="translate(76.800048828125,-0.22705078125)" data-index="2" style="opacity: 1; visibility: visible; fill: rgb(255, 221, 141);"></path>
<path d="M0 0 C0 0.66 0 1.32 0 2 C28.05 1.67 56.1 1.34 85 1 C87.05279359 5.10558718 87.2216942 6.80206685 87.125 11.25 C87.10695313 12.32765625 87.08890625 13.4053125 87.0703125 14.515625 C87.04710938 15.33546875 87.02390625 16.1553125 87 17 C87.90492187 17.07347656 87.90492187 17.07347656 88.828125 17.1484375 C89.62734375 17.22320312 90.4265625 17.29796875 91.25 17.375 C92.03890625 17.44460937 92.8278125 17.51421875 93.640625 17.5859375 C96.97950492 18.17189987 99.20415537 18.9315049 101.265625 21.69921875 C103.54050028 26.29410573 104.83912637 29.77876926 104 35 C101.32818747 41.42712508 97.22400831 45.10141878 91 48 C87.70017812 49.22895422 84.40019424 50.40903876 81.05078125 51.49609375 C77.19535877 53.14005976 77.19535877 53.14005976 73 59 C85.375 60.485 85.375 60.485 98 62 C92.66666667 72.66666667 92.66666667 72.66666667 88 75 C85.00584541 75.10918246 82.03459732 75.15733985 79.03979492 75.16113281 C77.64688988 75.16858017 77.64688988 75.16858017 76.22584534 75.17617798 C73.14404569 75.190821 70.06229752 75.19760541 66.98046875 75.203125 C64.84296161 75.208875 62.70545449 75.21463275 60.56794739 75.22039795 C56.08134724 75.23091424 51.59476504 75.23675269 47.1081543 75.24023438 C41.3578557 75.2457183 35.607794 75.26974162 29.85756969 75.29820633 C25.44036668 75.31682688 21.02322077 75.32203802 16.60598183 75.32357025 C14.48608417 75.32659897 12.36618757 75.33463485 10.24632835 75.34775543 C7.28016509 75.3648024 4.314581 75.36293879 1.34838867 75.35644531 C0.47183624 75.3656601 -0.40471619 75.37487488 -1.30783081 75.3843689 C-6.07239345 75.35168045 -9.08174098 75.00452996 -13 72 C-13.598125 71.5875 -14.19625 71.175 -14.8125 70.75 C-16.67545119 68.00459825 -16.07074967 65.23214281 -16 62 C0.70842825 59.88838269 0.70842825 59.88838269 9 59 C8.61328125 58.37996094 8.2265625 57.75992188 7.828125 57.12109375 C3.67181702 50.05331261 1.38164732 43.20864288 -0.46728516 35.24560547 C-1.06427709 32.72904644 -1.70838391 30.22678903 -2.35546875 27.72265625 C-2.82129406 25.87785174 -3.28614411 24.03280068 -3.75 22.1875 C-3.97308838 21.32850098 -4.19617676 20.46950195 -4.42602539 19.58447266 C-5.81548061 13.89661232 -7.07342715 7.84116228 -6 2 C-3 0 -3 0 0 0 Z M0 6 C1.20008577 15.0006433 2.35722998 23.64487556 4.375 32.4375 C4.5709375 33.35208984 4.766875 34.26667969 4.96875 35.20898438 C6.27693985 40.98406299 7.96346809 45.89417124 11 51 C11.99 51.33 12.98 51.66 14 52 C14 50.02 14 48.04 14 46 C15.32 46 16.64 46 18 46 C18 48.64 18 51.28 18 54 C16.68 54 15.36 54 14 54 C14.33967826 57.17033042 14.99869191 57.99882607 17.4375 60.1875 C21.64646561 63.16457324 24.76274845 63.17472052 29.7890625 63.203125 C30.56631683 63.20882507 31.34357117 63.21452515 32.14437866 63.22039795 C33.79366697 63.22985466 35.44297423 63.23638459 37.09228516 63.24023438 C39.59442116 63.24988209 42.09571516 63.28087365 44.59765625 63.3125 C46.20312014 63.31903614 47.8085899 63.32428421 49.4140625 63.328125 C50.52389999 63.3466452 50.52389999 63.3466452 51.65615845 63.36553955 C58.23446929 63.33787736 63.71931208 61.9765962 68.8125 57.5625 C72.88779436 51.98793346 73.56225383 44.58846685 74.70703125 37.9453125 C74.94975043 36.54674108 75.19324346 35.14830374 75.4375 33.75 C75.55738281 33.0576123 75.67726563 32.36522461 75.80078125 31.65185547 C76.47315498 28.01771047 77.27625923 24.95359412 79.125 21.75 C81.83949767 16.90130258 81.83949767 16.90130258 82 6 C54.94 6 27.88 6 0 6 Z " fill="#0B0808" transform="translate(22,46)" data-index="3" style="visibility: visible; opacity: 1;"></path>
<path d="M0 0 C3.25696479 0.41755959 4.63443291 0.63443291 7 3 C7.1876103 5.85714464 7.25557318 8.61565986 7.23046875 11.47265625 C7.23001053 12.31090439 7.22955231 13.14915253 7.2290802 14.01280212 C7.22605724 15.78564875 7.21816963 17.55849271 7.20581055 19.33129883 C7.18755065 22.05494522 7.18530085 24.77825192 7.18554688 27.50195312 C7.18063192 29.22135713 7.1748037 30.94075881 7.16796875 32.66015625 C7.16685593 33.47992447 7.1657431 34.29969269 7.16459656 35.14430237 C7.11604801 40.88395199 7.11604801 40.88395199 6 42 C7.65 42.33 9.3 42.66 11 43 C10.96519531 41.74703125 10.93039063 40.4940625 10.89453125 39.203125 C10.86638872 37.55209676 10.83908906 35.90105399 10.8125 34.25 C10.78736328 33.425 10.76222656 32.6 10.73632812 31.75 C10.69442545 28.28604563 10.73200321 25.64319229 12.07421875 22.421875 C14.97730111 20.27842271 17.50550532 20.73626455 21 21 C20.85879984 23.58366245 20.71221667 26.16682885 20.5625 28.75 C20.52318359 29.47960937 20.48386719 30.20921875 20.44335938 30.9609375 C20.01328477 38.23912319 20.01328477 38.23912319 19 41 C18.01 41.33 17.02 41.66 16 42 C18.41955706 43.20977853 20.31085022 43.3026595 23.0078125 43.53515625 C23.99394531 43.62216797 24.98007813 43.70917969 25.99609375 43.79882812 C27.02863281 43.88583984 28.06117187 43.97285156 29.125 44.0625 C30.16527344 44.15337891 31.20554687 44.24425781 32.27734375 44.33789062 C34.85127048 44.56222369 37.42546585 44.78276775 40 45 C39.505 45.99 39.505 45.99 39 47 C11.28 47 -16.44 47 -45 47 C-45 46.34 -45 45.68 -45 45 C-38.4 45 -31.8 45 -25 45 C-25 39.06 -25 33.12 -25 27 C-23.02 27 -21.04 27 -19 27 C-15.8 38.6 -15.8 38.6 -18 43 C-16.35 43.66 -14.7 44.32 -13 45 C-13 35.1 -13 25.2 -13 15 C-11.02 15 -9.04 15 -7 15 C-5.27966178 20.94298656 -4.71593028 26.20470338 -4.8125 32.375 C-4.81314453 33.18066406 -4.81378906 33.98632812 -4.81445312 34.81640625 C-4.85893654 40.71787309 -4.85893654 40.71787309 -6 43 C-4.35 43.66 -2.7 44.32 -1 45 C-1.00222061 44.45098526 -1.00444122 43.90197052 -1.00672913 43.33631897 C-1.02878358 37.64292041 -1.04390726 31.9495339 -1.05493164 26.25610352 C-1.05997298 24.12881986 -1.06680591 22.00153969 -1.07543945 19.87426758 C-1.08751379 16.82372174 -1.09323014 13.77322155 -1.09765625 10.72265625 C-1.10281754 9.76537125 -1.10797882 8.80808624 -1.11329651 7.8217926 C-1.11337204 6.94095505 -1.11344757 6.06011749 -1.11352539 5.15258789 C-1.115746 4.37315323 -1.11796661 3.59371857 -1.12025452 2.79066467 C-1 1 -1 1 0 0 Z " fill="#E5966F" transform="translate(67,1)" data-index="4" style="opacity: 1; visibility: visible; fill: rgb(0, 0, 0);"></path>
<path d="M0 0 C1.32 0 2.64 0 4 0 C4 1.32 4 2.64 4 4 C5.98 4 7.96 4 10 4 C10 2.68 10 1.36 10 0 C11.32 0 12.64 0 14 0 C14 1.32 14 2.64 14 4 C15.98 4 17.96 4 20 4 C20 2.68 20 1.36 20 0 C21.32 0 22.64 0 24 0 C24 1.32 24 2.64 24 4 C25.98 4 27.96 4 30 4 C30 2.68 30 1.36 30 0 C31.32 0 32.64 0 34 0 C34 1.32 34 2.64 34 4 C35.98 4 37.96 4 40 4 C40 2.68 40 1.36 40 0 C41.32 0 42.64 0 44 0 C44 1.98 44 3.96 44 6 C44.99 6 45.98 6 47 6 C45.64319732 10.44044513 43.86646942 12.45164515 40 15 C35.24130312 16.95683914 30.8342104 17.32059769 25.75 17.3359375 C24.97366211 17.3425943 24.19732422 17.3492511 23.39746094 17.35610962 C21.76369582 17.36618927 20.12988993 17.3709281 18.49609375 17.37060547 C16.00712083 17.37498746 13.51991087 17.41137774 11.03125 17.44921875 C9.43750601 17.45508635 7.84375368 17.45905612 6.25 17.4609375 C5.51233398 17.47530853 4.77466797 17.48967957 4.01464844 17.50448608 C-2.17894705 17.45011415 -5.70662838 15.29337162 -10 11 C-10 10.01 -10 9.02 -10 8 C-8.68 8 -7.36 8 -6 8 C-6 6.68 -6 5.36 -6 4 C-4.02 4 -2.04 4 0 4 C0 2.68 0 1.36 0 0 Z " fill="#CB6890" transform="translate(46,92)" data-index="5" style="visibility: visible; opacity: 1; fill: rgb(255, 221, 141);"></path>
<path d="M0 0 C27.06 0 54.12 0 82 0 C81.34 0.33 80.68 0.66 80 1 C80 2.65 80 4.3 80 6 C40.895 6.495 40.895 6.495 1 7 C0.67 4.69 0.34 2.38 0 0 Z " fill="#F88BB1" transform="translate(22,52)" data-index="6" style="opacity: 1; visibility: visible; fill: rgb(255, 221, 141);"></path>
<path d="M0 0 C0.495 0.99 0.495 0.99 1 2 C-1.31 2 -3.62 2 -6 2 C-6 2.66 -6 3.32 -6 4 C-4.68 4.33 -3.36 4.66 -2 5 C-29.06 5 -56.12 5 -84 5 C-83.34 4.67 -82.68 4.34 -82 4 C-82 3.34 -82 2.68 -82 2 C-82.66 1.67 -83.32 1.34 -84 1 C-42.42 0.505 -42.42 0.505 0 0 Z " fill="#090000" transform="translate(106,47)" data-index="7" style="opacity: 1; visibility: visible;"></path>
<path d="M0 0 C1.81242052 -0.02687279 3.62495233 -0.04633715 5.4375 -0.0625 C6.44683594 -0.07410156 7.45617187 -0.08570312 8.49609375 -0.09765625 C11 0 11 0 12 1 C12.14393457 5.33530918 12.04212061 9.66157731 12 14 C5.565 16.97 5.565 16.97 -1 20 C-3.45682064 15.08635872 -3.58609461 11.40226338 -3 6 C-1.5 2.375 -1.5 2.375 0 0 Z " fill="#F2F3F3" transform="translate(106,70)" data-index="8" style="opacity: 1; visibility: visible; fill: rgb(255, 221, 141);"></path>
<path d="M0 0 C-0.16371094 0.64324219 -0.32742187 1.28648438 -0.49609375 1.94921875 C-1.15334676 5.92840171 -1.106353 9.7881437 -1.0625 13.8125 C-1.05798828 14.60076172 -1.05347656 15.38902344 -1.04882812 16.20117188 C-1.03711312 18.13414761 -1.01917998 20.06708393 -1 22 C-0.67 21.34 -0.34 20.68 0 20 C0.99 20.33 1.98 20.66 3 21 C2.34 21.99 1.68 22.98 1 24 C0.63648496 26.02542148 0.63648496 26.02542148 0.5859375 28.23046875 C0.54726562 29.03291016 0.50859375 29.83535156 0.46875 30.66210938 C0.4378125 31.49548828 0.406875 32.32886719 0.375 33.1875 C0.31699219 34.4549707 0.31699219 34.4549707 0.2578125 35.74804688 C0.16363721 37.83167524 0.08073325 39.91580753 0 42 C-1.98 42 -3.96 42 -6 42 C-5.67 41.34 -5.34 40.68 -5 40 C-4.91301772 37.08300726 -4.88448077 34.19017452 -4.90234375 31.2734375 C-4.9037587 30.41062164 -4.90517365 29.54780579 -4.90663147 28.65884399 C-4.91223812 25.8975277 -4.92479173 23.13629188 -4.9375 20.375 C-4.94251414 18.5052095 -4.9470772 16.63541774 -4.95117188 14.765625 C-4.96220971 10.17705223 -4.9794788 5.58853977 -5 1 C-2 0 -2 0 0 0 Z " fill="#F9E5D8" transform="translate(78,2)" data-index="9" style="opacity: 1; visibility: visible; fill: rgb(255, 221, 141);"></path>
<path d="M0 0 C1.65 0 3.3 0 5 0 C5.71138901 5.62759519 6.15894933 11.26934725 6.375 16.9375 C6.42398438 18.01902344 6.47296875 19.10054687 6.5234375 20.21484375 C6 23 6 23 3.5390625 24.87890625 C1 26 1 26 0 26 C0 17.42 0 8.84 0 0 Z " fill="#EB9367" transform="translate(55,17)" data-index="10" style="opacity: 1; visibility: visible; fill: rgb(0, 0, 0);"></path>
<path d="M0 0 C0.763125 0.103125 1.52625 0.20625 2.3125 0.3125 C2.3125 1.9625 2.3125 3.6125 2.3125 5.3125 C1.6525 5.3125 0.9925 5.3125 0.3125 5.3125 C0.3125 9.6025 0.3125 13.8925 0.3125 18.3125 C-1.6675 18.6425 -3.6475 18.9725 -5.6875 19.3125 C-5.7689222 17.08394426 -5.82688079 14.85452345 -5.875 12.625 C-5.90980469 11.38363281 -5.94460937 10.14226563 -5.98046875 8.86328125 C-5.6105619 4.38001021 -4.91202221 0.57116537 0 0 Z " fill="#EC9367" transform="translate(84.6875,22.6875)" data-index="11" style="opacity: 1; visibility: visible; fill: rgb(0, 0, 0);"></path>
<path d="M0 0 C0 1.65 0 3.3 0 5 C-0.33 3.68 -0.66 2.36 -1 1 C-3.44480079 1.18828772 -3.44480079 1.18828772 -6 2 C-8.44537702 5.46428411 -8.39540327 9.11725895 -8.625 13.25 C-8.69976562 14.51328125 -8.77453125 15.7765625 -8.8515625 17.078125 C-8.90054688 18.04234375 -8.94953125 19.0065625 -9 20 C-7.02 19.67 -5.04 19.34 -3 19 C-3 14.71 -3 10.42 -3 6 C-2.34 6 -1.68 6 -1 6 C-0.972807 7.58323688 -0.95351694 9.16661062 -0.9375 10.75 C-0.92589844 11.63171875 -0.91429688 12.5134375 -0.90234375 13.421875 C-0.99359929 15.83102137 -1.11590071 17.7569138 -2 20 C-2.99 20.33 -3.98 20.66 -5 21 C-1.95786733 22.52106634 1.28047572 22.37429338 4.625 22.5625 C5.33140625 22.60568359 6.0378125 22.64886719 6.765625 22.69335938 C8.51018537 22.79944751 10.25506697 22.90022889 12 23 C12 23.33 12 23.66 12 24 C6.06 24.33 0.12 24.66 -6 25 C-6 24.34 -6 23.68 -6 23 C-8.31 23 -10.62 23 -13 23 C-12.01 22.67 -11.02 22.34 -10 22 C-10.05220703 20.12054688 -10.05220703 20.12054688 -10.10546875 18.203125 C-10.13361128 16.55209676 -10.16091094 14.90105399 -10.1875 13.25 C-10.22520508 12.0125 -10.22520508 12.0125 -10.26367188 10.75 C-10.33716781 4.67433563 -10.33716781 4.67433563 -8.71875 1.4375 C-5.99871707 -0.83743663 -3.39871847 -0.25650705 0 0 Z " fill="#DF9F80" transform="translate(88,22)" data-index="12" style="opacity: 1; visibility: visible; fill: rgb(0, 0, 0);"></path>
<path d="M0 0 C27.06 0 54.12 0 82 0 C82 0.33 82 0.66 82 1 C42.895 1.495 42.895 1.495 3 2 C2.67 3.65 2.34 5.3 2 7 C1.67 7 1.34 7 1 7 C0.67 4.69 0.34 2.38 0 0 Z " fill="#E494B1" transform="translate(22,52)" data-index="13" style="opacity: 1; visibility: visible; fill: rgb(255, 221, 141);"></path>
<path d="M0 0 C1.98 0 3.96 0 6 0 C5.67 0.66 5.34 1.32 5 2 C4.01 2 3.02 2 2 2 C1.67 16.52 1.34 31.04 1 46 C-0.98 45.34 -2.96 44.68 -5 44 C-4.67 43.34 -4.34 42.68 -4 42 C-3.91573906 40.3325394 -3.89274857 38.66174813 -3.90234375 36.9921875 C-3.90717773 35.51298828 -3.90717773 35.51298828 -3.91210938 34.00390625 C-3.92048828 32.97136719 -3.92886719 31.93882813 -3.9375 30.875 C-3.94426758 29.31458984 -3.94426758 29.31458984 -3.95117188 27.72265625 C-3.96298048 25.14838038 -3.97944925 22.57421854 -4 20 C-2 22 -2 22 -1.77294922 24.15478516 C-1.78342285 25.02409668 -1.79389648 25.8934082 -1.8046875 26.7890625 C-1.81113281 27.73007812 -1.81757812 28.67109375 -1.82421875 29.640625 C-1.84097656 30.62546875 -1.85773437 31.6103125 -1.875 32.625 C-1.88402344 33.61757813 -1.89304688 34.61015625 -1.90234375 35.6328125 C-1.92595884 38.08878134 -1.95889201 40.54427168 -2 43 C-1.34 43 -0.68 43 0 43 C0 28.81 0 14.62 0 0 Z " fill="#FDE7D9" transform="translate(65,0)" data-index="14" style="opacity: 1; visibility: visible; fill: rgb(0, 0, 0);"></path>
<path d="M0 0 C0.33 0 0.66 0 1 0 C1 9.9 1 19.8 1 30 C-0.98 29.34 -2.96 28.68 -5 28 C-4.67 27.34 -4.34 26.68 -4 26 C-3.92966231 24.12620395 -3.9156978 22.24998898 -3.9375 20.375 C-3.94652344 19.37210938 -3.95554688 18.36921875 -3.96484375 17.3359375 C-3.97644531 16.56507812 -3.98804688 15.79421875 -4 15 C-1.59798496 19.19879794 -1.84135851 22.24075541 -2 27 C-1.34 27 -0.68 27 0 27 C0 18.09 0 9.18 0 0 Z " fill="#FEEDE0" transform="translate(53,16)" data-index="15" style="opacity: 1; visibility: visible; fill: rgb(0, 0, 0);"></path>
<path d="M0 0 C1.98 0 3.96 0 6 0 C7.33583899 4.84241633 8.25328119 8.93437617 8 14 C7.01 14.495 7.01 14.495 6 15 C6.33 13.35 6.66 11.7 7 10 C6.34 10 5.68 10 5 10 C5 7.03 5 4.06 5 1 C3.68 1 2.36 1 1 1 C1 6.61 1 12.22 1 18 C0.67 18 0.34 18 0 18 C0 12.06 0 6.12 0 0 Z " fill="#DE9F80" transform="translate(42,28)" data-index="16" style="opacity: 1; visibility: visible; fill: rgb(0, 0, 0);"></path>
<path d="M0 0 C0.33 0 0.66 0 1 0 C1 1.65 1 3.3 1 5 C7.6 5.33 14.2 5.66 21 6 C21 6.66 21 7.32 21 8 C17.41604315 7.88995839 13.83312083 7.75936703 10.25 7.625 C9.23421875 7.5940625 8.2184375 7.563125 7.171875 7.53125 C5.70234375 7.47324219 5.70234375 7.47324219 4.203125 7.4140625 C3.30239258 7.3826416 2.40166016 7.3512207 1.47363281 7.31884766 C-1.08822875 6.98862744 -2.78127437 6.29048327 -5 5 C-3.35 4.67 -1.7 4.34 0 4 C0 2.68 0 1.36 0 0 Z " fill="#FBECDD" transform="translate(86,38)" data-index="17" style="opacity: 1; visibility: visible; fill: rgb(0, 0, 0);"></path>
<path d="M0 0 C2.53731364 1.26865682 2.78646846 2.49709121 4 5 C4.66 5.66 5.32 6.32 6 7 C5.67 7.33 5.34 7.66 5 8 C4.86431681 11.66344611 4.83538574 14.50615721 6 18 C6.12781786 20.67394964 6.04391871 23.32095857 6 26 C5.67 26 5.34 26 5 26 C4.16159002 22.23027682 3.3301451 18.4590511 2.5 14.6875 C2.14228516 13.0797168 2.14228516 13.0797168 1.77734375 11.43945312 C1.55175781 10.41142578 1.32617188 9.38339844 1.09375 8.32421875 C0.88427734 7.37635498 0.67480469 6.42849121 0.45898438 5.4519043 C0 3 0 3 0 0 Z " fill="#C8728E" transform="translate(23,59)" data-index="18" style="opacity: 1; visibility: visible; fill: rgb(255, 221, 141);"></path>
<path d="M0 0 C0.33 0 0.66 0 1 0 C1 5.94 1 11.88 1 18 C-5.27 18 -11.54 18 -18 18 C-18 17.67 -18 17.34 -18 17 C-12.72 17 -7.44 17 -2 17 C-0.84429296 13.53287889 -0.67164707 10.4585044 -0.4375 6.8125 C-0.35371094 5.54019531 -0.26992188 4.26789062 -0.18359375 2.95703125 C-0.09271484 1.49330078 -0.09271484 1.49330078 0 0 Z " fill="#F4E4D8" transform="translate(41,28)" data-index="19" style="opacity: 1; visibility: visible; fill: rgb(0, 0, 0);"></path>
<path d="M0 0 C0.93457031 0.09667969 1.86914062 0.19335938 2.83203125 0.29296875 C4.28416016 0.46119141 4.28416016 0.46119141 5.765625 0.6328125 C6.74917969 0.73722656 7.73273438 0.84164062 8.74609375 0.94921875 C11.17062762 1.20814955 13.59342306 1.47803485 16.015625 1.7578125 C16.015625 2.0878125 16.015625 2.4178125 16.015625 2.7578125 C10.075625 3.0878125 4.135625 3.4178125 -1.984375 3.7578125 C-1.984375 3.0978125 -1.984375 2.4378125 -1.984375 1.7578125 C-4.294375 1.7578125 -6.604375 1.7578125 -8.984375 1.7578125 C-5.7603047 -0.18054555 -3.71406352 -0.40764112 0 0 Z " fill="#E8B093" transform="translate(83.984375,43.2421875)" data-index="20" style="opacity: 1; visibility: visible; fill: rgb(0, 0, 0);"></path>
<path d="M0 0 C0.99 0 1.98 0 3 0 C3.99 1.98 4.98 3.96 6 6 C4.35 5.67 2.7 5.34 1 5 C0.67 3.35 0.34 1.7 0 0 Z " fill="#EAEAEA" transform="translate(26,100)" data-index="21" style="opacity: 1; visibility: visible; fill: rgb(255, 221, 141);"></path>
<path d="M0 0 C1.0625 1.875 1.0625 1.875 2 4 C1.67 4.66 1.34 5.32 1 6 C0.34 6 -0.32 6 -1 6 C-1.33 6.99 -1.66 7.98 -2 9 C-2.66 8.34 -3.32 7.68 -4 7 C-4 6.01 -4 5.02 -4 4 C-2.68 4 -1.36 4 0 4 C0 2.68 0 1.36 0 0 Z " fill="#B36785" transform="translate(40,96)" data-index="22" style="opacity: 1; stroke-width: 2px; stroke: rgb(255, 221, 141); visibility: visible; fill: rgb(255, 221, 141);"></path>
<path d="M0 0 C1.32 0.33 2.64 0.66 4 1 C2.515 4.96 2.515 4.96 1 9 C0.67 9 0.34 9 0 9 C0 6.03 0 3.06 0 0 Z " fill="#CE7591" transform="translate(97,66)" data-index="23" style="opacity: 1; visibility: visible; fill: rgb(255, 221, 141);"></path>
</svg>