<svg version="1.1" xmlns="http://www.w3.org/2000/svg" width="64" height="64">
<path d="M0 0 C0.99 0.66 1.98 1.32 3 2 C3.33 1.01 3.66 0.02 4 -1 C4.66 -0.67 5.32 -0.34 6 0 C5.7525 0.53625 5.505 1.0725 5.25 1.625 C4.86686562 5.26477662 6.948651 7.06950143 9 10 C11.23648009 15.0320802 11.21597596 19.60060096 11 25 C11.99 25.33 12.98 25.66 14 26 C15.39935013 28.79870027 15.25265405 30.90498792 15 34 C13.6875 35.875 13.6875 35.875 12 37 C11.01 37 10.02 37 9 37 C8.67 38.65 8.34 40.3 8 42 C8.598125 41.773125 9.19625 41.54625 9.8125 41.3125 C12 41 12 41 13.8125 42.1875 C15 44 15 44 14.6875 46.1875 C14.460625 46.785625 14.23375 47.38375 14 48 C12.02 48 10.04 48 8 48 C7.67 47.34 7.34 46.68 7 46 C5.02 50.95 5.02 50.95 3 56 C-7.56 56 -18.12 56 -29 56 C-30.79221762 51.22075302 -32.4103873 46.86519124 -33.6875 42 C-33.93886719 41.05125 -34.19023438 40.1025 -34.44921875 39.125 C-34.72185547 38.073125 -34.72185547 38.073125 -35 37 C-35.928125 36.814375 -35.928125 36.814375 -36.875 36.625 C-39 36 -39 36 -41 34 C-41.34490322 29.94738713 -41.30163882 28.45245824 -39 25 C-38.34 25 -37.68 25 -37 25 C-37.01160156 24.37351562 -37.02320313 23.74703125 -37.03515625 23.1015625 C-37.04869141 21.87566406 -37.04869141 21.87566406 -37.0625 20.625 C-37.07410156 19.81289063 -37.08570313 19.00078125 -37.09765625 18.1640625 C-37 16 -37 16 -36 14 C-36.99 14 -37.98 14 -39 14 C-39 13.01 -39 12.02 -39 11 C-38.39671875 10.91363281 -37.7934375 10.82726563 -37.171875 10.73828125 C-34.38068283 9.78947672 -33.75182587 8.68590785 -32.25 6.1875 C-31.82203125 5.50042969 -31.3940625 4.81335938 -30.953125 4.10546875 C-29.72506554 1.77785807 -29.72506554 1.77785807 -30 -2 C-29.505 -1.608125 -29.01 -1.21625 -28.5 -0.8125 C-25.15246776 0.27544798 -23.40547213 -0.94595584 -20.2734375 -2.25 C-13.17117948 -4.59301296 -6.59105851 -3.00644774 0 0 Z M7 42 C8 44 8 44 8 44 Z " fill="#070504" transform="translate(45,5)" data-index="0" style="visibility: visible; opacity: 1;"></path>
<path d="M0 0 C5.98730978 2.68794447 9.84397563 7.11615676 13.08984375 12.72265625 C14.33241142 17.94144046 14.17567674 23.19383746 12.71484375 28.34765625 C14.03484375 28.01765625 15.35484375 27.68765625 16.71484375 27.34765625 C17.09703142 29.00380282 17.42879477 30.67222649 17.71484375 32.34765625 C16.71484375 33.34765625 16.71484375 33.34765625 14.40234375 33.41015625 C13.51546875 33.38953125 12.62859375 33.36890625 11.71484375 33.34765625 C10.39484375 33.34765625 9.07484375 33.34765625 7.71484375 33.34765625 C4.9210676 32.87067008 2.40897822 32.24570107 -0.28515625 31.34765625 C-0.28515625 32.00765625 -0.28515625 32.66765625 -0.28515625 33.34765625 C-4.95182292 33.34765625 -9.61848958 33.34765625 -14.28515625 33.34765625 C-14.28515625 32.68765625 -14.28515625 32.02765625 -14.28515625 31.34765625 C-14.80078125 31.69828125 -15.31640625 32.04890625 -15.84765625 32.41015625 C-19.21034056 33.70349637 -21.78864291 32.9414038 -25.28515625 32.34765625 C-25.78015625 32.84265625 -25.78015625 32.84265625 -26.28515625 33.34765625 C-27.9513274 33.38829457 -29.6190372 33.39037725 -31.28515625 33.34765625 C-31.61515625 31.69765625 -31.94515625 30.04765625 -32.28515625 28.34765625 C-31.29515625 28.01765625 -30.30515625 27.68765625 -29.28515625 27.34765625 C-28.62515625 27.67765625 -27.96515625 28.00765625 -27.28515625 28.34765625 C-27.44371094 27.7753125 -27.60226563 27.20296875 -27.765625 26.61328125 C-29.20027762 20.3569014 -28.78131985 14.83058495 -25.625 9.203125 C-19.33456858 0.49188615 -10.47625943 -2.99065867 0 0 Z " fill="#F0CB9E" transform="translate(39.28515625,5.65234375)" data-index="1" style="visibility: visible; opacity: 1; fill: rgb(255, 221, 141);"></path>
<path d="M0 0 C1.98567708 0.26041667 3.97135417 0.52083333 5.95703125 0.78125 C8.15471706 1.053233 8.15471706 1.053233 11 1 C11 1.66 11 2.32 11 3 C11.33 3.99 11.66 4.98 12 6 C11.26842674 8.625057 10.47758814 11.12859819 9.5625 13.6875 C9.31951172 14.38939453 9.07652344 15.09128906 8.82617188 15.81445312 C8.2255056 17.54578532 7.61380281 19.27328137 7 21 C6.34 21 5.68 21 5 21 C4.67 19.35 4.34 17.7 4 16 C3.01 18.475 3.01 18.475 2 21 C1.34 21 0.68 21 0 21 C0 17.04 0 13.08 0 9 C-0.66 12.96 -1.32 16.92 -2 21 C-2.66 21 -3.32 21 -4 21 C-4 15.72 -4 10.44 -4 5 C-3.34 5 -2.68 5 -2 5 C-2 4.34 -2 3.68 -2 3 C-2.66 2.67 -3.32 2.34 -4 2 C-2.68 2 -1.36 2 0 2 C0 1.34 0 0.68 0 0 Z " fill="#130E0B" transform="translate(39,37)" data-index="2" style="visibility: visible; opacity: 1;"></path>
<path d="M0 0 C0 0.66 0 1.32 0 2 C-0.93972656 2.38091797 -0.93972656 2.38091797 -1.8984375 2.76953125 C-2.71570312 3.11371094 -3.53296875 3.45789063 -4.375 3.8125 C-5.18710937 4.14894531 -5.99921875 4.48539063 -6.8359375 4.83203125 C-9.30147458 5.94439082 -9.30147458 5.94439082 -11 9 C-11.45601261 11.50896686 -11.45601261 11.50896686 -11.625 14.1875 C-11.69976563 15.08855469 -11.77453125 15.98960938 -11.8515625 16.91796875 C-11.90054687 17.60503906 -11.94953125 18.29210937 -12 19 C-12.66 19 -13.32 19 -14 19 C-15.5547669 15.89046621 -15.28644437 13.43733239 -15 10 C-11.88118074 3.88231607 -7.26092035 -0.85422592 0 0 Z " fill="#15110D" transform="translate(31,10)" data-index="3" style="visibility: visible; opacity: 1;"></path>
<path d="M0 0 C0.86625 0.37125 0.86625 0.37125 1.75 0.75 C2.4375 3.0625 2.4375 3.0625 2.75 5.75 C1.625 7.625 1.625 7.625 -0.25 8.75 C-2.9375 8.4375 -2.9375 8.4375 -5.25 7.75 C-6 6 -6 6 -6.25 3.75 C-3.25 -0.36111111 -3.25 -0.36111111 0 0 Z " fill="#090A0C" transform="translate(10.25,4.25)" data-index="4" style="visibility: visible; opacity: 1;"></path>
<path d="M0 0 C0.66 0.33 1.32 0.66 2 1 C-1.07517084 12.52164009 -1.07517084 12.52164009 -3 18 C-3.66 18 -4.32 18 -5 18 C-4.76758196 15.81922646 -4.52820848 13.63968053 -4.27734375 11.4609375 C-4.03725303 9.33055509 -3.82825824 7.19671153 -3.625 5.0625 C-3 2 -3 2 0 0 Z " fill="#584030" transform="translate(49,40)" data-index="5" style="visibility: visible; opacity: 1; fill: rgb(255, 206, 92);"></path>
<path d="M0 0 C0.99 0.33 1.98 0.66 3 1 C3.94921875 3.546875 3.94921875 3.546875 4.6875 6.75 C4.93886719 7.79671875 5.19023437 8.8434375 5.44921875 9.921875 C5.94681633 12.70277496 6.10945568 15.18542538 6 18 C5.34 18 4.68 18 4 18 C3.13475247 15.56592995 2.28257135 13.12856816 1.4375 10.6875 C1.0672168 9.65206055 1.0672168 9.65206055 0.68945312 8.59570312 C-1.11328125 3.33984375 -1.11328125 3.33984375 0 0 Z " fill="#584030" transform="translate(14,40)" data-index="6" style="visibility: visible; opacity: 1; fill: rgb(255, 206, 92); stroke-width: 2px; stroke: rgb(255, 206, 92);"></path>
<path d="M0 0 C1.32 0.33 2.64 0.66 4 1 C4 4.3 4 7.6 4 11 C2.68 11 1.36 11 0 11 C-1.84651134 7.88401212 -2.38079379 5.61754103 -2 2 C-1.34 1.34 -0.68 0.68 0 0 Z " fill="#000000" transform="translate(56,4)" data-index="7" style="visibility: visible;"></path>
<path d="M0 0 C0.99 0.33 1.98 0.66 3 1 C2.01 1.66 1.02 2.32 0 3 C0.309375 3.7425 0.61875 4.485 0.9375 5.25 C2.40998964 10.44702225 2.66949055 15.62487263 3 21 C2.34 21 1.68 21 1 21 C0.24942665 18.06648422 -0.47588856 15.1304735 -1.1875 12.1875 C-1.40341797 11.35412109 -1.61933594 10.52074219 -1.84179688 9.66210938 C-2.03193359 8.85966797 -2.22207031 8.05722656 -2.41796875 7.23046875 C-2.60125732 6.49207764 -2.7845459 5.75368652 -2.97338867 4.99291992 C-3 3 -3 3 -1.53637695 1.2355957 C-1.02937256 0.82784912 -0.52236816 0.42010254 0 0 Z " fill="#403025" transform="translate(22,37)" data-index="8" style="visibility: visible; opacity: 1; fill: rgb(255, 206, 92);"></path>
<path d="M0 0 C2.33944736 0.28730055 4.6739143 0.61936779 7 1 C7.33 2.98 7.66 4.96 8 7 C6.02 7 4.04 7 2 7 C1.01 5.02 0.02 3.04 -1 1 C-0.67 0.67 -0.34 0.34 0 0 Z " fill="#000000" transform="translate(5,51)" data-index="9" style="visibility: visible;"></path>
<path d="M0 0 C1.67542976 0.28604898 3.34385343 0.61781233 5 1 C5.38218767 2.65614657 5.71395102 4.32457024 6 6 C5 7 5 7 2.5 7.125 C0 7 0 7 -1 6 C-1.125 3.5 -1.125 3.5 -1 1 C-0.67 0.67 -0.34 0.34 0 0 Z " fill="#231C14" transform="translate(32,26)" data-index="10" style="visibility: visible; opacity: 1; stroke-width: 2px; stroke: rgb(255, 221, 141); fill: rgb(255, 221, 141);"></path>
<path d="M0 0 C0.99 0 1.98 0 3 0 C3.09688221 5.44693314 3.12862175 10.63904667 2 16 C1.34 16 0.68 16 0 16 C0 10.72 0 5.44 0 0 Z " fill="#523B2D" transform="translate(35,42)" data-index="11" style="visibility: visible; opacity: 1; fill: rgb(255, 206, 92);"></path>
<path d="M0 0 C0.99 0 1.98 0 3 0 C3 5.28 3 10.56 3 16 C2.34 16 1.68 16 1 16 C-0.12862175 10.63904667 -0.09688221 5.44693314 0 0 Z " fill="#523B2D" transform="translate(26,42)" data-index="12" style="visibility: visible; opacity: 1; fill: rgb(255, 206, 92);"></path>
<path d="M0 0 C0.99 0.33 1.98 0.66 3 1 C2.01 6.28 1.02 11.56 0 17 C-0.66 17 -1.32 17 -2 17 C-1.34 11.39 -0.68 5.78 0 0 Z " fill="#493529" transform="translate(41,41)" data-index="13" style="visibility: visible; opacity: 1; fill: rgb(255, 206, 92);"></path>
<path d="M0 0 C2.0625 0.4375 2.0625 0.4375 4 1 C3.67 2.65 3.34 4.3 3 6 C1.35 5.67 -0.3 5.34 -2 5 C-1.125 1.125 -1.125 1.125 0 0 Z " fill="#1C1711" transform="translate(40,16)" data-index="14" style="visibility: visible;"></path>
<path d="M0 0 C3.125 0.375 3.125 0.375 6 1 C5.01 1.495 5.01 1.495 4 2 C3.34227572 5.02934491 3.34227572 5.02934491 3 8 C2.01 8 1.02 8 0 8 C0 6.35 0 4.7 0 3 C-0.66 2.67 -1.32 2.34 -2 2 C-1.34 1.34 -0.68 0.68 0 0 Z " fill="#0F0B09" transform="translate(23,38)" data-index="15" style="visibility: visible; opacity: 1;"></path>
<path d="M0 0 C0.99 0.33 1.98 0.66 3 1 C3 3.64 3 6.28 3 9 C2.34 9 1.68 9 1 9 C-0.4783226 6.04335481 -0.06032783 3.25770263 0 0 Z " fill="#2E271E" transform="translate(16,20)" data-index="16" style="visibility: visible; opacity: 1; stroke-width: 2px; stroke: rgb(255, 221, 141); fill: rgb(255, 221, 141);"></path>
<path d="M0 0 C2.475 0.99 2.475 0.99 5 2 C4.67 3.65 4.34 5.3 4 7 C3.34 6.01 2.68 5.02 2 4 C1.01 3.67 0.02 3.34 -1 3 C-0.67 2.01 -0.34 1.02 0 0 Z " fill="#110E0A" transform="translate(14,37)" data-index="17" style="visibility: visible;"></path>
<path d="M0 0 C0.66 0 1.32 0 2 0 C1.01 2.97 0.02 5.94 -1 9 C-1.33 9 -1.66 9 -2 9 C-2.25 3.375 -2.25 3.375 0 0 Z " fill="#090706" transform="translate(19,15)" data-index="18" style="visibility: visible; opacity: 1;"></path>
<path d="M0 0 C0.99 0.33 1.98 0.66 3 1 C2.67 1.99 2.34 2.98 2 4 C1.01 3.67 0.02 3.34 -1 3 C-0.67 2.01 -0.34 1.02 0 0 Z " fill="#000000" transform="translate(52,56)" data-index="19" style="visibility: visible; opacity: 1;"></path>
<path d="M0 0 C0.99 0 1.98 0 3 0 C3 0.99 3 1.98 3 3 C1.68 3 0.36 3 -1 3 C-0.67 2.01 -0.34 1.02 0 0 Z " fill="#000000" transform="translate(58,18)" data-index="20" style="visibility: visible;"></path>
<path d="M0 0 C0.99 0 1.98 0 3 0 C3 0.99 3 1.98 3 3 C2.01 3 1.02 3 0 3 C0 2.01 0 1.02 0 0 Z " fill="#000000" transform="translate(6,45)" data-index="21" style="visibility: visible;"></path>
</svg>