<?xml version="1.0" encoding="UTF-8"?>
<!-- Generator: visioncortex VTracer 0.6.4 -->
<svg version="1.1" xmlns="http://www.w3.org/2000/svg" width="64" height="64">
<path d="M0 0 C0.93 -0.02 1.86 -0.04 2.82 -0.06 C8.6 -0.1 12.64 0.51 17.75 3.25 C18.75 4.25 18.75 4.25 18.81 6.75 C18.79 7.57 18.77 8.4 18.75 9.25 C18.75 9.58 18.75 9.91 18.75 10.25 C20.14 10.13 20.14 10.13 21.56 10 C24.75 10.25 24.75 10.25 26.69 11.88 C28.14 15.11 27.73 16.88 26.75 20.25 C25.56 22.62 25.56 22.62 23.75 24.25 C20.56 24.5 20.56 24.5 17.75 24.25 C17.26 23.26 17.26 23.26 16.75 22.25 C16.09 23.57 15.43 24.89 14.75 26.25 C15.44 26.5 16.12 26.76 16.83 27.02 C17.73 27.36 18.63 27.71 19.56 28.06 C20.46 28.4 21.35 28.74 22.27 29.08 C24.71 30.23 26.1 31.14 27.75 33.25 C28.25 36.19 28.25 36.19 27.75 39.25 C23.45 44.09 17.75 45.06 11.54 45.46 C7.82 45.55 4.1 45.57 0.38 45.56 C-0.89 45.58 -2.15 45.59 -3.45 45.61 C-10.74 45.62 -17.52 45.28 -24.25 42.25 C-26.25 40.25 -26.25 40.25 -26.56 37.31 C-26.25 34.25 -26.25 34.25 -25.09 32.66 C-22.69 30.82 -20.49 30.29 -17.56 29.56 C-16.57 29.31 -15.57 29.06 -14.55 28.8 C-13.79 28.62 -13.03 28.44 -12.25 28.25 C-12.77 27.11 -12.77 27.11 -13.31 25.95 C-13.76 24.96 -14.22 23.96 -14.69 22.94 C-15.14 21.95 -15.59 20.97 -16.06 19.95 C-18.37 14.71 -19.12 9.94 -18.25 4.25 C-13 -0.44 -6.65 0.04 0 0 Z M-9.25 3.25 C-5.25 4.25 -5.25 4.25 -5.25 4.25 Z M4.75 3.25 C4.75 3.58 4.75 3.91 4.75 4.25 C6.4 4.25 8.05 4.25 9.75 4.25 C9.75 3.92 9.75 3.59 9.75 3.25 C8.1 3.25 6.45 3.25 4.75 3.25 Z M9.75 4.25 C9.75 5.57 9.75 6.89 9.75 8.25 C9.09 8.91 8.43 9.57 7.75 10.25 C11.88 9.68 11.88 9.68 15.75 8.25 C15.09 6.93 14.43 5.61 13.75 4.25 C12.43 4.25 11.11 4.25 9.75 4.25 Z M-14.25 5.25 C-15.55 6.35 -15.55 6.35 -15.62 9.06 C-15.58 14.86 -12.65 20.1 -10.25 25.25 C-10 26.02 -9.74 26.78 -9.48 27.57 C-8.3 29.58 -8.3 29.58 -5.39 29.79 C-4.25 29.82 -3.11 29.85 -1.94 29.88 C2.45 30.01 5.76 30.38 9.75 32.25 C9.75 33.57 9.75 34.89 9.75 36.25 C6.8 37.73 4.1 37.46 0.81 37.5 C-1.06 37.54 -1.06 37.54 -2.96 37.58 C-6.25 37.25 -6.25 37.25 -8.13 35.86 C-9.25 34.25 -9.25 34.25 -10.25 32.25 C-11.67 32.37 -13.08 32.49 -14.5 32.62 C-15.29 32.69 -16.08 32.76 -16.89 32.84 C-19.34 33.27 -21.1 34.04 -23.25 35.25 C-23.03 37.21 -23.03 37.21 -22.25 39.25 C-11.94 44.05 -0.28 43.71 10.81 42.5 C11.51 42.43 12.22 42.35 12.94 42.28 C17.4 41.7 20.85 40.46 24.75 38.25 C24.63 36.34 24.63 36.34 23.75 34.25 C19.63 30.9 14.83 30.22 9.75 29.25 C10.26 28.12 10.76 26.99 11.28 25.82 C11.94 24.34 12.59 22.86 13.25 21.38 C13.58 20.63 13.92 19.88 14.26 19.11 C14.74 18.04 14.74 18.04 15.22 16.95 C15.51 16.29 15.81 15.63 16.11 14.95 C16.87 13.24 16.87 13.24 16.75 11.25 C15.96 11.41 15.17 11.57 14.35 11.74 C9.92 12.37 5.6 12.43 1.12 12.44 C0.28 12.45 -0.57 12.46 -1.44 12.47 C-2.25 12.48 -3.07 12.48 -3.91 12.48 C-4.65 12.48 -5.39 12.49 -6.15 12.49 C-8.54 12.22 -10.17 11.44 -12.25 10.25 C-12.25 8.6 -12.25 6.95 -12.25 5.25 C-12.91 5.25 -13.57 5.25 -14.25 5.25 Z M-9.25 7.25 C-9.25 7.91 -9.25 8.57 -9.25 9.25 C-6.77 9.75 -6.77 9.75 -4.25 10.25 C-4.25 9.26 -4.25 8.27 -4.25 7.25 C-1.61 7.25 1.03 7.25 3.75 7.25 C3.75 6.92 3.75 6.59 3.75 6.25 C2.33 6.22 0.92 6.2 -0.5 6.19 C-1.29 6.18 -2.08 6.16 -2.89 6.15 C-5.16 6.25 -7.08 6.62 -9.25 7.25 Z M19.75 13.25 C18.29 15.9 17.75 17.14 17.75 20.25 C19.07 20.58 20.39 20.91 21.75 21.25 C23.38 18.93 23.38 18.93 24.75 16.25 C24.42 15.26 24.09 14.27 23.75 13.25 C22.43 13.25 21.11 13.25 19.75 13.25 Z M-7.25 32.25 C-7.25 32.91 -7.25 33.57 -7.25 34.25 C-4.49 35.63 -2.2 35.35 0.88 35.31 C1.97 35.3 3.07 35.29 4.2 35.29 C5.04 35.27 5.88 35.26 6.75 35.25 C7.08 34.59 7.41 33.93 7.75 33.25 C4.44 32.25 1.45 32.15 -2 32.19 C-2.98 32.2 -3.97 32.21 -4.98 32.21 C-6.11 32.23 -6.11 32.23 -7.25 32.25 Z " fill="#000000" transform="translate(30.25,9.75)"/>
</svg>
