<svg version="1.1" xmlns="http://www.w3.org/2000/svg" width="60" height="60">
<path d="M0 0 C5.90801565 4.75209955 10.65128463 9.98731997 12.875 17.3125 C13.08632209 20.0356733 13.01914687 22.57370944 12.875 25.3125 C11.885 25.6425 10.895 25.9725 9.875 26.3125 C10.0296875 27.735625 10.0296875 27.735625 10.1875 29.1875 C10.14979273 35.39663016 7.04850767 40.78461607 3.078125 45.40234375 C-2.84089966 51.00174108 -9.02400692 53.37399408 -17.125 53.6875 C-26.44614043 53.32677475 -32.74575922 50.06699024 -39.125 43.3125 C-41.55909244 40.17173556 -42.08955352 38.6112632 -42.5625 34.625 C-42.748125 33.531875 -42.93375 32.43875 -43.125 31.3125 C-45.09818742 30.07291679 -45.09818742 30.07291679 -47.125 29.3125 C-47.63276401 19.08199547 -46.64342791 13.00446879 -40 5.0625 C-29.04874824 -6.56762218 -13.64071188 -7.36598441 0 0 Z M-23.9140625 20.75 C-25.43733739 22.46446449 -25.43733739 22.46446449 -25.75 25.875 C-25.36802382 29.3037989 -25.36802382 29.3037989 -23.5 31.6875 C-20.56221938 33.69756043 -18.6853504 34.23983979 -15.125 34.3125 C-12.26798293 33.46504366 -12.26798293 33.46504366 -10.125 31.3125 C-8.46140919 27.98995889 -8.46140919 27.98995889 -8.125 24.3125 C-9.3364125 21.28396875 -10.37014315 19.82385464 -13.0625 18 C-17.75272871 16.43659043 -20.35541923 17.57070449 -23.9140625 20.75 Z " fill="#F06874" transform="translate(47.125,5.6875)" data-index="0" style="visibility: visible; opacity: 1; fill: rgb(255, 221, 141);"></path>
<path d="M0 0 C5.90801565 4.75209955 10.65128463 9.98731997 12.875 17.3125 C13.08632209 20.0356733 13.01914687 22.57370944 12.875 25.3125 C11.885 25.6425 10.895 25.9725 9.875 26.3125 C10.0296875 27.735625 10.0296875 27.735625 10.1875 29.1875 C10.14979273 35.39663016 7.04850767 40.78461607 3.078125 45.40234375 C-2.84089966 51.00174108 -9.02400692 53.37399408 -17.125 53.6875 C-26.42618614 53.32754698 -32.77460891 50.08028769 -39.125 43.3125 C-41.37139761 40.22370329 -42.125 39.11922941 -42.125 35.3125 C-38.61159138 36.48363621 -38.29988928 37.61616603 -36.4296875 40.6171875 C-33.33728346 44.63546101 -28.90162234 47.72029255 -24.125 49.3125 C-14.60919966 49.98117786 -8.12243623 49.51187272 -0.4375 43.6875 C4.53639916 39.2054021 7.02591141 32.8929366 7.875 26.3125 C6.225 26.3125 4.575 26.3125 2.875 26.3125 C2.89820313 26.93898438 2.92140625 27.56546875 2.9453125 28.2109375 C2.96335938 29.02820312 2.98140625 29.84546875 3 30.6875 C3.02320313 31.49960937 3.04640625 32.31171875 3.0703125 33.1484375 C2.875 35.3125 2.875 35.3125 0.875 37.3125 C-1.75 36.9375 -1.75 36.9375 -4.125 36.3125 C-4.125 33.6725 -4.125 31.0325 -4.125 28.3125 C-5.115 28.3125 -6.105 28.3125 -7.125 28.3125 C-7.2178125 29.17875 -7.2178125 29.17875 -7.3125 30.0625 C-8.53391929 33.44489188 -10.02648223 34.5050313 -13.125 36.3125 C-17.84571894 37.24467095 -21.05485408 37.0036359 -25.125 34.375 C-27.72203626 30.39828822 -28.71789302 27.06399478 -28.125 22.3125 C-26.46746674 19.18593725 -24.33143764 16.91571882 -21.125 15.3125 C-14.26648681 14.62664868 -14.26648681 14.62664868 -11.265625 16.4296875 C-9.81885855 17.64910493 -8.46292975 18.97457025 -7.125 20.3125 C-7.455 21.6325 -7.785 22.9525 -8.125 24.3125 C-9.625 22.9375 -9.625 22.9375 -11.125 21.3125 C-11.125 20.6525 -11.125 19.9925 -11.125 19.3125 C-16.79886802 18.06062645 -16.79886802 18.06062645 -22.125 19.8125 C-24.4253846 22.25227046 -24.4253846 22.25227046 -24.625 25.875 C-24.37040838 29.17669772 -24.37040838 29.17669772 -23 31.1875 C-20.35637414 32.77367551 -18.19153482 33.12475297 -15.125 33.3125 C-12.82363938 32.82867907 -12.82363938 32.82867907 -11.125 31.3125 C-9.84245356 28.77479997 -9.84245356 28.77479997 -9.125 26.3125 C-6.75 26.1875 -6.75 26.1875 -4.125 26.3125 C-2.125 28.3125 -2.125 28.3125 -2 31.9375 C-2.04125 33.05125 -2.0825 34.165 -2.125 35.3125 C-1.135 35.3125 -0.145 35.3125 0.875 35.3125 C0.86339844 34.60222656 0.85179687 33.89195313 0.83984375 33.16015625 C0.83082031 32.24105469 0.82179687 31.32195313 0.8125 30.375 C0.80089844 29.45847656 0.78929687 28.54195312 0.77734375 27.59765625 C0.875 25.3125 0.875 25.3125 1.875 24.3125 C4.52963121 23.85790142 7.19689138 23.61006762 9.875 23.3125 C9.48031669 17.12912816 7.6901114 12.24970299 3.875 7.3125 C1.05548693 4.9503411 -1.90033313 3.07193362 -5.125 1.3125 C-5.71796875 0.93867187 -6.3109375 0.56484375 -6.921875 0.1796875 C-12.97533286 -2.20305655 -21.74065592 -1.70091779 -27.9296875 0.15234375 C-34.668201 3.61486712 -39.4143936 9.17638827 -43 15.75 C-44.3244074 19.94395676 -44.83737898 23.93867694 -45.125 28.3125 C-43.84625 28.27125 -42.5675 28.23 -41.25 28.1875 C-39.0703125 28.1171875 -39.0703125 28.1171875 -37.125 28.3125 C-35.125 30.3125 -35.125 30.3125 -35 32.9375 C-35.04125 33.72125 -35.0825 34.505 -35.125 35.3125 C-34.135 35.3125 -33.145 35.3125 -32.125 35.3125 C-32.125 33.0025 -32.125 30.6925 -32.125 28.3125 C-31.465 28.3125 -30.805 28.3125 -30.125 28.3125 C-30 31.6875 -30 31.6875 -30.125 35.3125 C-30.785 35.9725 -31.445 36.6325 -32.125 37.3125 C-34.125 37.25 -34.125 37.25 -36.125 36.3125 C-37.375 33.75 -37.375 33.75 -38.125 31.3125 C-39.23875 31.35375 -40.3525 31.395 -41.5 31.4375 C-45.125 31.3125 -45.125 31.3125 -47.125 29.3125 C-48.183945 21.1434957 -47.09588739 14.36594677 -42.23828125 7.73828125 C-31.01125143 -5.68321164 -15.33561052 -8.28122968 0 0 Z " fill="#0C0807" transform="translate(47.125,5.6875)" data-index="1" style="visibility: visible; opacity: 1;"></path>
<path d="M0 0 C1.65 0 3.3 0 5 0 C4.25136719 8.98359366 0.9805452 14.64851329 -5.8046875 20.5546875 C-12.28412114 24.8205068 -19.51781068 24.71520927 -27 24 C-33.8680193 22.21521867 -37.75367447 17.39659599 -42 12 C-42.804375 11.071875 -43.60875 10.14375 -44.4375 9.1875 C-46 7 -46 7 -46 4 C-44.35 4 -42.7 4 -41 4 C-40.01 5.98 -39.02 7.96 -38 10 C-36.68 9.67 -35.36 9.34 -34 9 C-34 6.36 -34 3.72 -34 1 C-32.1875 1.1875 -32.1875 1.1875 -30 2 C-28.375 4.4375 -28.375 4.4375 -27 7 C-24.61775072 9.38224928 -23.9497963 9.32017149 -20.6875 9.375 C-17.22987718 9.3026182 -16.06645156 9.04014782 -13 7.1875 C-10.80058068 5.07967048 -10.80058068 5.07967048 -10 2 C-9.01 2 -8.02 2 -7 2 C-6.505 5.96 -6.505 5.96 -6 10 C-4.35 9.67 -2.7 9.34 -1 9 C-0.67 6.03 -0.34 3.06 0 0 Z " fill="#F7D8B4" transform="translate(50,32)" data-index="2" style="visibility: visible; opacity: 1; fill: rgb(255, 206, 92);"></path>
<path d="M0 0 C0 0.66 0 1.32 0 2 C-1.50622413 2.93469245 -3.05743623 3.79728934 -4.625 4.625 C-11.16690976 8.4148599 -15.86259507 13.6162375 -18 21 C-18.37593066 22.9924325 -18.71979545 24.9918674 -19 27 C-21.12561242 23.54587982 -21.54144577 21.02216856 -21 17 C-17.38341905 8.74073839 -9.42456237 0 0 0 Z " fill="#F8868F" transform="translate(24,5)" data-index="3" style="visibility: visible; opacity: 1; fill: rgb(255, 221, 141);"></path>
<path d="M0 0 C1.65 0 3.3 0 5 0 C5.50615298 1.26839526 6.00469099 2.53983102 6.5 3.8125 C6.91765625 4.87404297 6.91765625 4.87404297 7.34375 5.95703125 C8 8 8 8 8 11 C5 10 5 10 4 8.125 C3.505 7.073125 3.505 7.073125 3 6 C2.46375 5.484375 1.9275 4.96875 1.375 4.4375 C0 3 0 3 0 0 Z " fill="#ECE0D0" transform="translate(4,36)" data-index="4" style="visibility: visible; opacity: 1; fill: rgb(255, 206, 92);"></path>
<path d="M0 0 C3.83032799 0.29464061 6.35234913 0.53045312 9.5 2.8125 C11 5 11 5 10.75 7.25 C10.5025 7.8275 10.255 8.405 10 9 C8.5 7.625 8.5 7.625 7 6 C7 5.34 7 4.68 7 4 C4.36 3.34 1.72 2.68 -1 2 C-0.67 1.34 -0.34 0.68 0 0 Z " fill="#080303" transform="translate(29,21)" data-index="5" style="visibility: visible; opacity: 1;"></path>
<path d="M0 0 C2.00720923 0.28674418 4.0085944 0.61866701 6 1 C6 1.33 6 1.66 6 2 C4.35 2 2.7 2 1 2 C1 4.97 1 7.94 1 11 C0.67 11 0.34 11 0 11 C-0.19406478 9.35492782 -0.38007935 7.70890406 -0.5625 6.0625 C-0.66691406 5.14597656 -0.77132812 4.22945312 -0.87890625 3.28515625 C-0.91886719 2.53105469 -0.95882812 1.77695312 -1 1 C-0.67 0.67 -0.34 0.34 0 0 Z " fill="#3D332B" transform="translate(49,30)" data-index="6" style="visibility: visible;"></path>
</svg>