<svg version="1.1" xmlns="http://www.w3.org/2000/svg" width="128" height="128">
<path d="M0 0 C42.24 0 84.48 0 128 0 C128 42.24 128 84.48 128 128 C85.76 128 43.52 128 0 128 C0 85.76 0 43.52 0 0 Z " fill="#FC4972" transform="translate(0,0)" data-index="0" style="opacity: 1; visibility: visible; fill: rgb(255, 221, 141);"></path>
<path d="M0 0 C42.24 0 84.48 0 128 0 C128 42.24 128 84.48 128 128 C85.76 128 43.52 128 0 128 C0 85.76 0 43.52 0 0 Z M48 2 C47.34 5.3 46.68 8.6 46 12 C42.7 12 39.4 12 36 12 C36 14.64 36 17.28 36 20 C35.36191406 20.06058594 34.72382812 20.12117188 34.06640625 20.18359375 C32.82697266 20.30927734 32.82697266 20.30927734 31.5625 20.4375 C30.32693359 20.55931641 30.32693359 20.55931641 29.06640625 20.68359375 C27.01337975 20.78930815 27.01337975 20.78930815 26 22 C25.84235595 23.77869726 25.74899323 25.56318476 25.68359375 27.34765625 C25.64169922 28.42724609 25.59980469 29.50683594 25.55664062 30.61914062 C25.51732422 31.75544922 25.47800781 32.89175781 25.4375 34.0625 C25.37272461 35.77276367 25.37272461 35.77276367 25.30664062 37.51757812 C25.20017161 40.34492195 25.09815793 43.17235738 25 46 C24.21625 46.268125 23.4325 46.53625 22.625 46.8125 C19.71885077 47.84814432 19.71885077 47.84814432 18 51 C17.27630326 57.64914876 18.2374133 64.49976916 19.0234375 71.109375 C19.12967438 72.03864807 19.23591125 72.96792114 19.34536743 73.925354 C19.56972443 75.87860129 19.79675933 77.83154269 20.02636719 79.78417969 C20.37239856 82.72786951 20.71038334 85.67239349 21.046875 88.6171875 C22.13969097 106.82343098 22.13969097 106.82343098 27 124 C30.64381288 126.42920859 32.33612445 126.24285565 36.67456055 126.22705078 C37.68471222 126.22748886 37.68471222 126.22748886 38.715271 126.22793579 C40.93921839 126.22654344 43.16282995 126.21098703 45.38671875 126.1953125 C46.92942624 126.19158203 48.4721361 126.18873522 50.0148468 126.18673706 C54.07388864 126.17910329 58.1327872 126.15945706 62.19177246 126.1373291 C66.3342088 126.11686512 70.4766683 126.10773416 74.61914062 126.09765625 C82.74615948 126.07621088 90.87306191 126.04207808 99 126 C102.44490117 120.68090698 103.7645968 116.43074635 104.44921875 110.171875 C104.55216751 109.34222229 104.65511627 108.51256958 104.76118469 107.65777588 C105.08440081 105.02336114 105.38609526 102.3869893 105.6875 99.75 C105.90031638 97.99592622 106.11449769 96.24201747 106.33007812 94.48828125 C107.79514248 82.4494163 109.17978262 70.51848125 109.125 58.375 C109.12886719 57.47910156 109.13273437 56.58320312 109.13671875 55.66015625 C109.13542969 54.81066406 109.13414063 53.96117187 109.1328125 53.0859375 C109.13112061 51.9419751 109.13112061 51.9419751 109.12939453 50.77490234 C109.1925916 48.97465097 109.1925916 48.97465097 108 48 C106.02 48 104.04 48 102 48 C102 39.42 102 30.84 102 22 C97.05 21.01 97.05 21.01 92 20 C92 17.36 92 14.72 92 12 C88.7 12 85.4 12 82 12 C81.34 8.7 80.68 5.4 80 2 C75.38 2 70.76 2 66 2 C66 5.3 66 8.6 66 12 C64.68 12 63.36 12 62 12 C62 8.7 62 5.4 62 2 C57.38 2 52.76 2 48 2 Z " fill="#F4F5F5" transform="translate(0,0)" data-index="1" style="opacity: 1; visibility: visible; fill: rgb(255, 221, 141);"></path>
<path d="M0 0 C4.62 0 9.24 0 14 0 C14 3.3 14 6.6 14 10 C15.32 10 16.64 10 18 10 C18 6.7 18 3.4 18 0 C22.62 0 27.24 0 32 0 C32.66 3.3 33.32 6.6 34 10 C37.3 10 40.6 10 44 10 C44 12.64 44 15.28 44 18 C48.95 18.99 48.95 18.99 54 20 C54 28.58 54 37.16 54 46 C55.98 46 57.96 46 60 46 C62.1210538 48.1210538 61.20891882 52.75776618 61.2109375 55.6796875 C61.20756305 65.99747577 60.25095873 76.10165307 58.97363281 86.33105469 C58.62102668 89.15684217 58.28574047 91.98429591 57.953125 94.8125 C57.73275352 96.64855571 57.51143425 98.48449797 57.2890625 100.3203125 C57.19001617 101.14653107 57.09096985 101.97274963 56.98892212 102.82400513 C56.46199189 107.01815741 55.84409912 111.19242648 55.10693359 115.35498047 C54.96774506 116.14935516 54.82855652 116.94372986 54.68515015 117.76217651 C53.84475528 120.50705717 53.09980836 122.01631192 51 124 C48.04664612 124.50793457 48.04664612 124.50793457 44.38891602 124.51757812 C43.3884021 124.52809204 43.3884021 124.52809204 42.36767578 124.53881836 C40.16266242 124.55642414 37.95893268 124.54476677 35.75390625 124.53125 C34.22077691 124.53394453 32.68764924 124.53782663 31.15452576 124.54284668 C27.94066098 124.54874543 24.72724083 124.5401684 21.51342773 124.52148438 C17.39610354 124.49871314 13.27982331 124.51180288 9.16253757 124.53577423 C5.99602922 124.55023884 2.82976773 124.545623 -0.33674812 124.53526306 C-1.85458563 124.53259658 -3.37244563 124.53586284 -4.89025688 124.54518127 C-7.01394727 124.55535647 -9.13595616 124.53983517 -11.25952148 124.51757812 C-12.46736801 124.51439575 -13.67521454 124.51121338 -14.91966248 124.50793457 C-18.62437384 123.89704341 -19.76854215 122.96973592 -22 120 C-23.74581451 114.53894577 -24.45693358 109.12371875 -25 103.43359375 C-25.08121094 102.63703873 -25.16242187 101.8404837 -25.24609375 101.01979065 C-25.5029072 98.49287902 -25.75194519 95.96528509 -26 93.4375 C-26.33009173 90.1233661 -26.66382002 86.80961538 -27 83.49609375 C-27.0812764 82.69036423 -27.1625528 81.8846347 -27.24629211 81.05448914 C-27.89574127 74.733037 -28.70605358 68.44418585 -29.60229492 62.15332031 C-31.0344201 50.79829956 -31.0344201 50.79829956 -28.73046875 46.79296875 C-27 45 -27 45 -23 44 C-22.67 36.08 -22.34 28.16 -22 20 C-16 18 -16 18 -12 18 C-12 15.36 -12 12.72 -12 10 C-8.7 10 -5.4 10 -2 10 C-1.34 6.7 -0.68 3.4 0 0 Z M-8 14 C-9.23407164 27.96864065 -9.54696636 41.98946131 -10 56 C-15.01508715 54.45941767 -19.6147081 52.97068161 -24 50 C-24.78702204 64.70856744 -22.91326764 78.62132171 -20.38671875 93.06640625 C-18.82053833 102.02672298 -17.41866113 111.01514621 -16 120 C5.12 120 26.24 120 48 120 C49.34699306 113.93853124 50.49280039 108.10385025 51.25390625 101.9765625 C51.35968491 101.14973969 51.46546356 100.32291687 51.57444763 99.47103882 C51.79566988 97.73517536 52.01489 95.99905566 52.23217773 94.26269531 C52.56086586 91.63804895 52.89610944 89.01430418 53.23242188 86.390625 C55.38255778 70.65476804 55.38255778 70.65476804 56.0625 54.8125 C56.05347656 53.89082031 56.04445313 52.96914063 56.03515625 52.01953125 C56.02355469 51.35308594 56.01195313 50.68664063 56 50 C52.843928 51.1821713 50.14289087 52.46064376 47.375 54.375 C38.22923946 60.2407819 28.55172213 62.19588953 17.875 62.1875 C16.61272583 62.1884668 16.61272583 62.1884668 15.32495117 62.18945312 C9.05528853 62.13641743 3.09735892 61.53461618 -3 60 C-3 59.34 -3 58.68 -3 58 C-2.01 58 -1.02 58 0 58 C0 43.48 0 28.96 0 14 C-2.64 14 -5.28 14 -8 14 Z " fill="#080304" transform="translate(48,2)" data-index="2" style="opacity: 1; visibility: visible;"></path>
<path d="M0 0 C0.31170138 9.05128255 -0.66122758 17.85523905 -1.8125 26.8125 C-1.99562406 28.27362838 -2.17831851 29.73481066 -2.3605957 31.19604492 C-2.8960379 35.4654756 -3.44564299 39.73298875 -4 44 C-4.15436523 45.19109375 -4.30873047 46.3821875 -4.46777344 47.609375 C-4.86860687 50.6778867 -5.27531755 53.74549387 -5.6875 56.8125 C-5.80649658 57.69977783 -5.92549316 58.58705566 -6.0480957 59.5012207 C-6.15984131 60.31163818 -6.27158691 61.12205566 -6.38671875 61.95703125 C-6.52920044 62.99307495 -6.52920044 62.99307495 -6.67456055 64.05004883 C-7.00905562 66.05425901 -7.50718424 68.02873694 -8 70 C-29.12 70 -50.24 70 -72 70 C-72 69.34 -72 68.68 -72 68 C-52.86 68 -33.72 68 -14 68 C-14 65.36 -14 62.72 -14 60 C-15.32 60 -16.64 60 -18 60 C-18 58.02 -18 56.04 -18 54 C-16.02 54 -14.04 54 -12 54 C-12 52.68 -12 51.36 -12 50 C-13.32 50 -14.64 50 -16 50 C-16 44.39 -16 38.78 -16 33 C-14.02 32.505 -14.02 32.505 -12 32 C-12 31.34 -12 30.68 -12 30 C-11.34 30 -10.68 30 -10 30 C-9.66114962 27.47980028 -9.32879665 24.95901484 -9 22.4375 C-8.90460938 21.73302734 -8.80921875 21.02855469 -8.7109375 20.30273438 C-8.13333583 15.82632145 -7.90510617 11.51338762 -8 7 C-8.86625 7.5259375 -8.86625 7.5259375 -9.75 8.0625 C-12.39786506 9.16577711 -13.33185326 8.80156509 -16 8 C-14.98679687 7.51080078 -14.98679687 7.51080078 -13.953125 7.01171875 C-13.06109375 6.57472656 -12.1690625 6.13773438 -11.25 5.6875 C-10.36828125 5.25824219 -9.4865625 4.82898437 -8.578125 4.38671875 C-5.98339185 3.07633928 -5.98339185 3.07633928 -3.796875 1.33203125 C-2 0 -2 0 0 0 Z " fill="#D72F69" transform="translate(104,52)" data-index="3" style="opacity: 1; visibility: visible; fill: rgb(255, 221, 141);"></path>
<path d="M0 0 C6.875 3.75 6.875 3.75 8 6 C8.37742221 8.41786101 8.70831128 10.82161377 9 13.25 C9.08902588 13.97380859 9.17805176 14.69761719 9.26977539 15.44335938 C9.78770024 19.792594 10.17359866 24.1267778 10.4375 28.5 C10.9178758 36.20380446 11.94403064 43.828337 12.98413086 51.47460938 C13.72017038 57.04247296 14.15414813 62.38364623 14 68 C12.02 68 10.04 68 8 68 C6.60111492 62.68831293 5.5096751 57.43463389 4.74609375 51.9921875 C4.64031509 51.26307159 4.53453644 50.53395569 4.42555237 49.78274536 C4.09234411 47.4806997 3.7647241 45.17790311 3.4375 42.875 C3.10548556 40.56514534 2.77231602 38.25546034 2.43873596 35.9458313 C2.23275847 34.51686185 2.02788702 33.08773237 1.82432556 31.65841675 C1.40205913 28.7051649 0.95800695 25.76367546 0.43603516 22.82617188 C0.02696401 20.17476788 -0.11504961 17.71764071 -0.09765625 15.0390625 C-0.09443359 14.15605469 -0.09121094 13.27304688 -0.08789062 12.36328125 C-0.07951172 11.45964844 -0.07113281 10.55601563 -0.0625 9.625 C-0.05798828 8.69816406 -0.05347656 7.77132812 -0.04882812 6.81640625 C-0.03711574 4.54420291 -0.02071372 2.27213612 0 0 Z " fill="#E86697" transform="translate(24,52)" data-index="4" style="opacity: 1; visibility: visible; fill: rgb(255, 221, 141);"></path>
<path d="M0 0 C1.98 0 3.96 0 6 0 C6 18.48 6 36.96 6 56 C4.02 56 2.04 56 0 56 C0 37.52 0 19.04 0 0 Z " fill="#DAC180" transform="translate(70,6)" data-index="5" style="opacity: 1; visibility: visible; fill: rgb(255, 221, 141);"></path>
<path d="M0 0 C1.98 0 3.96 0 6 0 C6 17.82 6 35.64 6 54 C4.02 54 2.04 54 0 54 C0 36.18 0 18.36 0 0 Z " fill="#DEC581" transform="translate(52,8)" data-index="6" style="opacity: 1; visibility: visible; fill: rgb(255, 221, 141);"></path>
<path d="M0 0 C1.98 0 3.96 0 6 0 C6 14.52 6 29.04 6 44 C4.02 44 2.04 44 0 44 C0 29.48 0 14.96 0 0 Z " fill="#DBAE1C" transform="translate(80,16)" data-index="7" style="opacity: 1; visibility: visible; fill: rgb(255, 221, 141);"></path>
<path d="M0 0 C1.98 0 3.96 0 6 0 C6 14.52 6 29.04 6 44 C4.68 43.67 3.36 43.34 2 43 C1.11434414 40.34303242 0.8549738 38.71809917 0.79467773 35.98754883 C0.77473251 35.18694534 0.75478729 34.38634186 0.73423767 33.56147766 C0.71752518 32.70201035 0.70081268 31.84254303 0.68359375 30.95703125 C0.66281265 30.0734343 0.64203156 29.18983734 0.62062073 28.27946472 C0.55524246 25.45722215 0.49629472 22.63488665 0.4375 19.8125 C0.39430363 17.89907894 0.35068898 15.98566727 0.30664062 14.07226562 C0.19957305 9.38160563 0.09827248 4.69085217 0 0 Z " fill="#D3A631" transform="translate(42,16)" data-index="8" style="opacity: 1; visibility: visible; fill: rgb(255, 221, 141);"></path>
<path d="M0 0 C1.32 0 2.64 0 4 0 C4.50832642 3.83227646 5.00514174 7.66596304 5.5 11.5 C5.64308594 12.57765625 5.78617188 13.6553125 5.93359375 14.765625 C6.67616809 20.56477697 7.17027502 26.15389099 7 32 C5.02 32 3.04 32 1 32 C-1.0463906 25.26227916 -1.27126769 19.07694173 -1.1875 12.0625 C-1.18685547 11.00998047 -1.18621094 9.95746094 -1.18554688 8.87304688 C-1.14061993 1.14061993 -1.14061993 1.14061993 0 0 Z " fill="#F36C9B" transform="translate(31,88)" data-index="9" style="opacity: 1; visibility: visible; fill: rgb(255, 221, 141);"></path>
<path d="M0 0 C1.98 0 3.96 0 6 0 C6 10.56 6 21.12 6 32 C4.02 31.34 2.04 30.68 0 30 C0 20.1 0 10.2 0 0 Z " fill="#E4CB81" transform="translate(32,24)" data-index="10" style="opacity: 1; visibility: visible; fill: rgb(255, 221, 141);"></path>
<path d="M0 0 C1.98 0 3.96 0 6 0 C6 9.9 6 19.8 6 30 C4.02 30.66 2.04 31.32 0 32 C0 21.44 0 10.88 0 0 Z " fill="#E4CC82" transform="translate(90,24)" data-index="11" style="opacity: 1; visibility: visible; fill: rgb(255, 221, 141);"></path>
<path d="M0 0 C0.66 0 1.32 0 2 0 C2.91163006 9.40936455 3.29352352 18.80618102 3.5625 28.25 C3.60582986 29.68881084 3.64944794 31.12761304 3.69335938 32.56640625 C3.79888509 36.04417776 3.90054774 39.52204888 4 43 C4.99 43.33 5.98 43.66 7 44 C6.34 44 5.68 44 5 44 C5 44.66 5 45.32 5 46 C5.66 46.33 6.32 46.66 7 47 C4.36 47 1.72 47 -1 47 C-1.66 45.68 -2.32 44.36 -3 43 C-2.505 42.505 -2.505 42.505 -2 42 C-1.85324905 40.09318325 -1.77243585 38.18123305 -1.71875 36.26953125 C-1.68193115 35.0794043 -1.6451123 33.88927734 -1.60717773 32.66308594 C-1.57180908 31.39239258 -1.53644043 30.12169922 -1.5 28.8125 C-1.19878043 19.18564427 -0.84781822 9.59658065 0 0 Z " fill="#784346" transform="translate(40,16)" data-index="12" style="opacity: 1; visibility: visible; fill: rgb(255, 221, 141);"></path>
<path d="M0 0 C1.98 0 3.96 0 6 0 C6 4.62 6 9.24 6 14 C7.32 14.66 8.64 15.32 10 16 C-11.12 16 -32.24 16 -54 16 C-54 15.34 -54 14.68 -54 14 C-34.86 14 -15.72 14 4 14 C4 11.36 4 8.72 4 6 C2.68 6 1.36 6 0 6 C0 4.02 0 2.04 0 0 Z " fill="#A03366" transform="translate(86,106)" data-index="13" style="opacity: 1; visibility: visible; fill: rgb(255, 221, 141);"></path>
<path d="M0 0 C1.32 0 2.64 0 4 0 C4 13.86 4 27.72 4 42 C3.34 41.67 2.68 41.34 2 41 C1.97494385 39.94498291 1.9498877 38.88996582 1.92407227 37.80297852 C1.83015891 33.90229372 1.72989966 30.00179375 1.62768555 26.10131836 C1.58427561 24.41060701 1.54260511 22.71985009 1.50268555 21.02905273 C1.44512906 18.60386394 1.38139351 16.17890585 1.31640625 13.75390625 C1.29969376 12.99348526 1.28298126 12.23306427 1.26576233 11.44960022 C1.47908732 7.92917969 1.47908732 7.92917969 0 5 C-0.04063832 3.33382885 -0.042721 1.66611905 0 0 Z " fill="#E1B10D" transform="translate(43,17)" data-index="14" style="opacity: 1; visibility: visible; fill: rgb(255, 221, 141);"></path>
<path d="M0 0 C1.32 0.99 2.64 1.98 4 3 C3.01 3 2.02 3 1 3 C1.14024219 5.47960136 1.2869185 7.95852402 1.4375 10.4375 C1.47681641 11.14455078 1.51613281 11.85160156 1.55664062 12.58007812 C1.47624438 16.08690419 1.47624438 16.08690419 3 19 C3.23481693 21.18292774 3.41363323 23.37203174 3.5625 25.5625 C3.64628906 26.76003906 3.73007812 27.95757812 3.81640625 29.19140625 C3.87699219 30.11824219 3.93757813 31.04507813 4 32 C6.9254644 32.2236068 6.9254644 32.2236068 9 31 C9 32.65 9 34.3 9 36 C8.01 36.495 8.01 36.495 7 37 C6.52998967 40.27555608 6.52998967 40.27555608 6.375 44.0625 C6.30023437 45.35285156 6.22546875 46.64320312 6.1484375 47.97265625 C6.09945313 48.97167969 6.05046875 49.97070312 6 51 C5.67 51 5.34 51 5 51 C1.89703772 33.90729926 -0.93323311 17.44108991 0 0 Z " fill="#CD668F" transform="translate(24,52)" data-index="15" style="opacity: 1; visibility: visible; fill: rgb(255, 221, 141);"></path>
<path d="M0 0 C1.2065625 0.0309375 1.2065625 0.0309375 2.4375 0.0625 C2.29610519 2.31278329 2.14921997 4.56272206 2 6.8125 C1.91878906 8.06546875 1.83757812 9.3184375 1.75390625 10.609375 C1.51234478 13.24567553 1.19466066 15.54287294 0.4375 18.0625 C-0.8825 18.0625 -2.2025 18.0625 -3.5625 18.0625 C-3.58934312 15.24993719 -3.60926188 12.43762759 -3.625 9.625 C-3.63337891 8.82255859 -3.64175781 8.02011719 -3.65039062 7.19335938 C-3.6590143 5.14954779 -3.6147815 3.10566098 -3.5625 1.0625 C-2.5625 0.0625 -2.5625 0.0625 0 0 Z " fill="#9D2965" transform="translate(91.5625,83.9375)" data-index="16" style="opacity: 1; visibility: visible; fill: rgb(255, 221, 141);"></path>
<path d="M0 0 C0.99 0 1.98 0 3 0 C3 3.96 3 7.92 3 12 C1.02 12.99 1.02 12.99 -1 14 C-0.34 14 0.32 14 1 14 C1 15.65 1 17.3 1 19 C0.01 19 -0.98 19 -2 19 C-2.05380578 16.20807795 -2.09357669 13.4171859 -2.125 10.625 C-2.14175781 9.8309375 -2.15851563 9.036875 -2.17578125 8.21875 C-2.19335473 6.14507985 -2.10335168 4.07116759 -2 2 C-1.34 1.34 -0.68 0.68 0 0 Z " fill="#E62D6A" transform="translate(94,100)" data-index="17" style="opacity: 1; visibility: visible; fill: rgb(255, 221, 141);"></path>
<path d="M0 0 C0.33 0 0.66 0 1 0 C0.67 11.88 0.34 23.76 0 36 C-3 37 -3 37 -5.04296875 36.22265625 C-6.10451172 35.64837891 -6.10451172 35.64837891 -7.1875 35.0625 C-8.26064453 34.49208984 -8.26064453 34.49208984 -9.35546875 33.91015625 C-9.89816406 33.60980469 -10.44085937 33.30945312 -11 33 C-11 32.67 -11 32.34 -11 32 C-3.25 32.875 -3.25 32.875 -1 34 C-1.00523682 33.07662842 -1.01047363 32.15325684 -1.01586914 31.2019043 C-1.03291585 27.77465186 -1.0454525 24.3474445 -1.05493164 20.92016602 C-1.05995903 19.43708587 -1.06678185 17.95401067 -1.07543945 16.47094727 C-1.08757482 14.33869199 -1.09324425 12.20650227 -1.09765625 10.07421875 C-1.10289307 8.79119873 -1.10812988 7.50817871 -1.11352539 6.1862793 C-1 3 -1 3 0 0 Z " fill="#2B0D0E" transform="translate(39,22)" data-index="18" style="opacity: 1; visibility: visible;"></path>
<path d="M0 0 C2.64 0 5.28 0 8 0 C-1.67795562 6.45197041 -12.86299165 5.3087261 -24 5 C-24 4.67 -24 4.34 -24 4 C-23.30849854 3.9498877 -22.61699707 3.89977539 -21.90454102 3.84814453 C-18.78970714 3.61691118 -15.67618856 3.37115591 -12.5625 3.125 C-10.92958008 3.00705078 -10.92958008 3.00705078 -9.26367188 2.88671875 C-7.71196289 2.76103516 -7.71196289 2.76103516 -6.12890625 2.6328125 C-5.17056885 2.55949707 -4.21223145 2.48618164 -3.22485352 2.41064453 C-2.12355103 2.20737549 -2.12355103 2.20737549 -1 2 C-0.67 1.34 -0.34 0.68 0 0 Z " fill="#3C050D" transform="translate(80,60)" data-index="19" style="opacity: 1; visibility: visible; fill: rgb(0, 0, 0);"></path>
<path d="M0 0 C-7.84529749 4.24953614 -13.70497332 5.409766 -22.5 4.6875 C-23.4178125 4.62626953 -24.335625 4.56503906 -25.28125 4.50195312 C-27.52242226 4.35020709 -29.76116889 4.18262465 -32 4 C-32 3.67 -32 3.34 -32 3 C-30.74445312 2.96261719 -29.48890625 2.92523438 -28.1953125 2.88671875 C-16.27866692 2.54149275 -16.27866692 2.54149275 -4.8125 -0.4765625 C-3 -1 -3 -1 0 0 Z " fill="#DA5170" transform="translate(88,62)" data-index="20" style="opacity: 1; visibility: visible; fill: rgb(255, 221, 141);"></path>
<path d="M0 0 C0.33 0 0.66 0 1 0 C0.896875 1.03125 0.79375 2.0625 0.6875 3.125 C1.09332558 8.15723716 2.54970448 9.46344709 6 13 C3.36 13 0.72 13 -2 13 C-2.66 11.68 -3.32 10.36 -4 9 C-3.01 8.67 -2.02 8.34 -1 8 C-0.67 5.36 -0.34 2.72 0 0 Z " fill="#843B57" transform="translate(41,50)" data-index="21" style="opacity: 1; visibility: visible; fill: rgb(0, 0, 0);"></path>
<path d="M0 0 C0.99 0 1.98 0 3 0 C3 0.99 3 1.98 3 3 C2.34 3 1.68 3 1 3 C1 7.29 1 11.58 1 16 C0.34 16 -0.32 16 -1 16 C-1.02685095 13.52076199 -1.04676547 11.0418116 -1.0625 8.5625 C-1.07506836 7.50192383 -1.07506836 7.50192383 -1.08789062 6.41992188 C-1.09653588 4.61306441 -1.05220011 2.80612397 -1 1 C-0.67 0.67 -0.34 0.34 0 0 Z " fill="#882F6D" transform="translate(90,85)" data-index="22" style="opacity: 1; visibility: visible; fill: rgb(255, 221, 141);"></path>
<path d="M0 0 C0 1.98 0 3.96 0 6 C-0.99 6.495 -0.99 6.495 -2 7 C-2 5.68 -2 4.36 -2 3 C-2.60328125 3.22816406 -3.2065625 3.45632812 -3.828125 3.69140625 C-4.62734375 3.97886719 -5.4265625 4.26632813 -6.25 4.5625 C-7.03890625 4.85253906 -7.8278125 5.14257812 -8.640625 5.44140625 C-11.19103452 6.04522837 -12.55322229 5.8473932 -15 5 C-13.75264433 4.3490741 -12.50198168 3.70448331 -11.25 3.0625 C-10.55390625 2.70285156 -9.8578125 2.34320313 -9.140625 1.97265625 C-5.97004622 0.53201005 -3.48822516 0 0 0 Z " fill="#D63A6A" transform="translate(103,55)" data-index="23" style="opacity: 1; visibility: visible; fill: rgb(255, 221, 141);"></path>
<path d="M0 0 C0.12886183 7.40239645 -0.20274098 14.63959083 -1 22 C-1.33 22 -1.66 22 -2 22 C-2.0272616 19.95840905 -2.04651345 17.91671037 -2.0625 15.875 C-2.07410156 14.73804687 -2.08570312 13.60109375 -2.09765625 12.4296875 C-2.005327 9.1870844 -1.61389906 6.18067388 -1 3 C-2.65 3.33 -4.3 3.66 -6 4 C-2.25 0 -2.25 0 0 0 Z " fill="#A02C55" transform="translate(104,52)" data-index="24" style="opacity: 1; visibility: visible; fill: rgb(255, 221, 141);"></path>
<path d="M0 0 C2 2 2 2 2.125 5.125 C2.08375 6.07375 2.0425 7.0225 2 8 C0.68 8 -0.64 8 -2 8 C-1.125 1.125 -1.125 1.125 0 0 Z " fill="#ED5D8D" transform="translate(30,56)" data-index="25" style="opacity: 1; visibility: visible; fill: rgb(255, 221, 141);"></path>
<path d="M0 0 C-0.1875 1.875 -0.1875 1.875 -1 4 C-3.5625 5.25 -3.5625 5.25 -6 6 C-6 5.34 -6 4.68 -6 4 C-5.34 4 -4.68 4 -4 4 C-4.33 3.01 -4.66 2.02 -5 1 C-2 0 -2 0 0 0 Z " fill="#331210" transform="translate(96,54)" data-index="26" style="opacity: 1;"></path>
<path d="M0 0 C1.32 0 2.64 0 4 0 C4 1.65 4 3.3 4 5 C2.68 4.67 1.36 4.34 0 4 C0 2.68 0 1.36 0 0 Z " fill="#9E336E" transform="translate(87,107)" data-index="27" style="opacity: 1; visibility: visible; fill: rgb(255, 221, 141);"></path>
</svg>